<?xml version="1.0" standalone="no"?>
<!DOCTYPE svg PUBLIC "-//W3C//DTD SVG 20010904//EN"
 "http://www.w3.org/TR/2001/REC-SVG-20010904/DTD/svg10.dtd">
<svg version="1.0" xmlns="http://www.w3.org/2000/svg"
 width="2160.000000pt" height="1451.000000pt" viewBox="0 0 2160.000000 1451.000000"
 preserveAspectRatio="xMidYMid meet">

<g transform="translate(0.000000,1451.000000) scale(0.100000,-0.100000)"
fill="#000000" stroke="none">
<path d="M8960 13482 c0 -5 14 -7 30 -4 17 2 30 6 30 8 0 2 -13 4 -30 4 -16 0
-30 -4 -30 -8z"/>
<path d="M8815 13460 c-329 -76 -627 -266 -844 -537 -19 -23 -38 -40 -44 -36
-5 3 -8 0 -5 -8 2 -7 1 -18 -4 -24 -34 -43 -77 -105 -72 -105 3 0 -5 -15 -18
-32 -13 -18 -23 -35 -24 -38 -5 -22 -30 -70 -36 -70 -4 0 -8 -7 -8 -16 0 -9
-9 -33 -20 -53 -53 -95 -100 -365 -100 -572 -1 -253 46 -457 156 -684 53 -109
89 -172 129 -221 17 -20 32 -42 34 -48 7 -18 28 -35 35 -28 4 3 4 -2 0 -12 -5
-12 -4 -17 3 -13 5 3 16 -5 23 -18 7 -14 17 -25 22 -25 5 0 7 -4 4 -8 -3 -5 8
-16 25 -26 35 -20 38 -39 6 -31 -13 4 -30 7 -39 9 -9 1 -23 8 -31 15 -13 10
-15 9 -10 -11 6 -21 3 -20 -27 10 -19 18 -40 30 -47 28 -6 -3 -15 4 -18 15 -4
10 -10 19 -15 19 -5 0 -24 15 -43 33 l-33 34 -11 -24 c-11 -22 -10 -23 10 -17
18 6 20 5 10 -8 -10 -11 -4 -25 33 -72 43 -54 53 -84 19 -56 -23 19 -29 6 -8
-16 17 -17 17 -17 -5 -12 -19 5 -22 3 -17 -13 5 -13 2 -19 -7 -17 -8 2 -14 -9
-16 -29 -2 -25 -8 -33 -23 -33 -14 0 -19 -7 -19 -25 0 -14 -4 -25 -10 -25 -5
0 -10 -5 -10 -11 0 -6 -11 -25 -24 -42 -13 -18 -27 -47 -31 -64 -6 -32 -25
-46 -25 -20 0 8 -3 7 -9 -3 -6 -8 -7 -18 -4 -22 2 -5 0 -14 -5 -21 -12 -15
-26 -68 -23 -85 1 -8 -3 -20 -10 -28 -9 -11 -8 -14 5 -14 19 0 22 -16 4 -23
-9 -3 -7 -10 7 -21 20 -16 20 -16 1 -31 -17 -13 -18 -15 -3 -15 9 0 17 -4 17
-9 0 -5 3 -16 6 -24 3 -8 -3 -22 -12 -32 -17 -17 -17 -18 4 -35 18 -15 27 -39
33 -88 1 -4 1 -16 0 -27 -1 -17 -3 -18 -12 -5 -9 12 -10 12 -5 -3 3 -10 6 -21
6 -23 0 -2 7 -4 15 -4 8 0 15 -9 15 -19 0 -11 5 -23 10 -26 6 -4 8 -15 5 -24
-3 -10 1 -24 10 -31 10 -8 12 -17 5 -29 -6 -13 -4 -22 10 -34 11 -9 17 -23 14
-32 -4 -8 0 -23 7 -32 8 -8 12 -26 11 -38 -2 -13 3 -25 12 -28 9 -4 13 -13 10
-21 -3 -8 4 -25 15 -37 12 -13 21 -28 21 -33 0 -6 3 -22 5 -36 5 -22 4 -22 -4
-5 -8 17 -9 15 -8 -12 1 -17 6 -31 12 -30 5 1 12 -23 16 -53 4 -30 14 -75 24
-100 9 -25 17 -65 18 -90 1 -25 7 -50 13 -57 6 -6 14 -35 18 -65 4 -29 12 -58
17 -64 7 -8 6 -14 -1 -19 -16 -10 -12 -45 11 -95 14 -30 21 -66 21 -107 0 -35
5 -63 10 -63 6 0 6 -6 -1 -14 -8 -10 -9 -16 -1 -21 5 -3 10 -15 10 -26 0 -10
5 -19 11 -19 7 0 8 -14 4 -40 -5 -27 -3 -40 4 -40 9 0 9 -6 1 -20 -6 -11 -8
-25 -4 -32 4 -6 6 -41 5 -79 -1 -38 2 -70 9 -74 6 -4 10 -55 9 -137 0 -79 4
-133 10 -137 6 -4 6 -12 2 -20 -5 -7 -4 -29 1 -47 5 -19 7 -66 5 -104 -2 -38
1 -74 6 -79 5 -5 9 -39 8 -77 0 -43 4 -71 12 -76 7 -4 7 -8 1 -8 -6 0 -8 -20
-3 -57 3 -32 2 -62 -2 -68 -14 -14 -11 -25 7 -25 13 0 14 -3 5 -14 -6 -7 -9
-20 -5 -29 3 -8 1 -18 -5 -21 -6 -4 -6 -16 1 -37 7 -21 7 -43 -1 -76 -7 -25
-9 -48 -6 -51 3 -3 5 1 5 8 0 11 3 11 11 3 7 -7 8 -19 3 -30 -11 -24 -11 -146
0 -154 4 -4 3 -16 -3 -27 -7 -12 -9 -51 -6 -97 3 -46 1 -84 -6 -97 -7 -13 -7
-18 -1 -14 6 3 13 2 17 -4 3 -5 1 -10 -4 -10 -15 0 -14 -27 2 -34 10 -5 10 -7
0 -12 -14 -6 -18 -44 -5 -44 9 0 7 -296 -3 -332 -5 -19 -3 -28 5 -28 7 0 9 -8
5 -20 -4 -11 -6 -127 -5 -258 2 -295 1 -328 -9 -355 -5 -12 -5 -31 -1 -42 12
-33 12 -227 0 -220 -6 4 -6 -4 2 -19 8 -20 8 -32 0 -52 -8 -16 -8 -23 -2 -19
10 6 7 -21 -6 -63 -2 -7 1 -10 6 -7 7 4 8 -5 4 -27 -3 -18 -6 -82 -6 -143 0
-60 -4 -115 -10 -122 -6 -8 -3 -15 9 -22 10 -6 13 -11 7 -11 -6 0 -10 -21 -9
-54 1 -30 -1 -60 -6 -67 -8 -13 -1 -41 10 -35 3 2 7 -32 7 -76 1 -53 -2 -75
-8 -66 -7 9 -8 5 -5 -14 3 -20 1 -25 -12 -20 -14 5 -14 4 -1 -10 10 -11 19
-13 27 -6 11 9 16 36 28 177 3 35 12 70 20 78 8 8 14 24 14 36 -2 22 -2 22 -6
-1 -2 -12 -9 -22 -15 -22 -13 0 -1 73 13 78 12 5 12 52 -1 52 -5 0 -10 7 -10
16 0 9 6 14 13 11 9 -3 12 5 8 32 -3 30 -5 32 -12 16 -6 -15 -8 -11 -8 18 -1
31 2 38 17 35 15 -3 17 -15 16 -101 -1 -53 3 -97 7 -97 14 0 10 -38 -3 -43
-10 -4 -10 -7 -1 -14 9 -6 11 -26 7 -65 -3 -32 -1 -65 5 -76 7 -13 7 -23 -2
-32 -10 -10 -8 -12 7 -6 20 7 20 6 1 -14 -12 -14 22 -1 101 38 65 33 126 62
134 65 12 5 12 6 -1 6 -12 1 -16 10 -15 33 2 19 7 32 14 31 8 -2 9 7 6 26 -4
17 0 38 9 52 8 13 20 49 27 79 10 43 15 50 21 35 7 -18 8 -17 8 6 1 15 8 32
16 39 8 7 13 16 10 20 -3 5 -1 11 5 15 5 3 10 14 10 23 0 12 -3 13 -12 4 -16
-16 -28 -15 -28 2 0 8 -7 17 -16 20 -24 9 -28 7 -15 -8 10 -11 7 -14 -14 -12
-16 0 -25 7 -25 18 0 27 11 48 26 48 18 0 17 10 -1 34 -22 30 -18 53 10 60 29
7 34 26 8 26 -15 0 -16 2 -3 10 13 8 11 11 -7 16 -13 4 -23 11 -23 16 0 6 9 8
20 5 15 -4 20 0 20 15 0 15 5 18 20 13 11 -4 20 -2 20 4 0 6 -4 11 -10 11 -5
0 -10 9 -10 19 0 11 -4 22 -9 26 -11 6 -41 -22 -41 -38 1 -7 10 -1 20 12 15
18 20 19 20 7 0 -9 -15 -25 -32 -36 -37 -22 -48 -25 -48 -10 0 6 7 10 16 10
15 0 15 2 -1 26 -18 28 -14 44 8 26 10 -9 17 -8 25 0 17 17 15 31 -3 25 -8 -4
-17 -1 -21 5 -5 8 6 9 40 5 l46 -7 -15 30 c-8 16 -15 39 -15 51 0 17 3 19 14
10 12 -10 13 -8 9 9 -3 11 -16 23 -30 26 -17 5 -22 11 -18 22 3 8 0 19 -7 23
-9 6 -9 11 2 23 16 21 5 33 -15 16 -10 -8 -15 -9 -15 -1 0 6 5 11 11 11 6 0 9
7 5 15 -4 10 1 15 14 15 11 0 20 -5 20 -11 0 -5 5 -7 11 -3 7 4 1 13 -16 24
l-27 18 36 37 c20 20 36 39 36 41 0 8 -9 4 -25 -12 -21 -22 -33 -9 -13 13 19
22 7 63 -18 63 -8 0 -14 6 -11 13 2 6 14 11 26 10 11 -2 21 2 21 8 0 5 -3 8
-7 6 -5 -3 -16 6 -26 19 -10 13 -14 24 -8 24 5 0 11 -6 14 -12 10 -29 21 13
18 70 -1 12 -5 22 -11 22 -14 0 -12 -37 3 -43 8 -3 6 -7 -6 -12 -26 -11 -30
-1 -17 41 17 52 43 78 69 69 12 -3 21 -11 21 -17 0 -6 6 -6 15 2 13 11 19 7
17 -11 -1 -4 8 -5 19 -2 12 4 25 0 30 -8 8 -12 10 -12 18 0 7 11 10 10 15 -5
3 -11 16 -25 28 -33 21 -13 22 -13 9 3 -19 22 -6 33 15 12 9 -10 23 -15 31
-12 8 3 19 6 24 6 5 0 9 18 9 40 0 22 5 40 11 40 7 0 10 -17 7 -45 -2 -29 1
-46 9 -49 9 -4 11 3 7 23 -6 26 -4 28 20 24 24 -5 38 11 16 19 -11 4 -2 48 11
48 15 0 33 -44 20 -48 -6 -2 -8 -8 -5 -14 3 -5 13 0 21 12 13 18 14 37 7 108
-7 66 -9 76 -12 45 l-3 -43 -42 0 c-32 0 -38 -3 -29 -12 15 -15 16 -28 2 -28
-5 0 -10 6 -10 14 0 10 -14 16 -42 19 l-43 4 43 1 42 2 0 40 0 40 -40 0 c-38
0 -40 2 -40 30 0 33 -16 38 -53 19 -16 -9 -22 -9 -25 0 -2 6 -8 11 -14 11 -6
0 -6 -6 2 -15 10 -12 9 -16 -3 -21 -29 -11 -52 0 -49 24 2 12 -2 22 -7 22 -6
0 -11 -5 -11 -11 0 -5 -4 -8 -9 -5 -8 6 -7 46 5 124 3 19 11 32 19 32 8 0 15
7 15 15 0 8 8 15 17 15 13 0 14 3 5 12 -9 9 -15 9 -24 0 -18 -18 -28 -15 -28
8 0 16 5 19 30 14 26 -6 30 -4 30 16 0 20 -4 22 -30 17 -28 -6 -30 -4 -30 21
1 23 2 24 11 10 5 -10 19 -18 29 -18 31 0 28 9 -30 77 -18 22 -11 43 15 43 16
0 25 -6 25 -15 0 -33 21 -51 56 -47 19 2 34 8 34 13 0 5 7 9 16 9 11 0 14 6 8
23 -9 30 -9 30 -39 23 -16 -4 -25 -13 -25 -26 0 -11 -4 -20 -10 -20 -5 0 -10
9 -10 20 0 12 -7 20 -16 20 -10 0 -14 7 -12 23 2 17 9 21 28 19 24 -2 24 -2 5
12 -18 13 -21 13 -33 -2 -11 -15 -14 -15 -22 -2 -7 11 -5 19 7 27 22 17 10 27
-16 13 -17 -9 -21 -8 -21 5 0 9 9 15 25 15 23 0 25 2 14 22 -9 16 -9 23 0 26
15 5 14 32 -1 32 -9 0 -8 4 2 10 12 8 13 13 3 30 -19 30 -16 42 9 35 16 -6 20
-4 15 9 -3 8 -2 18 3 21 5 3 9 -18 8 -49 -1 -30 -5 -53 -10 -50 -4 3 -5 -2 -2
-10 3 -9 11 -13 17 -9 7 4 8 -2 3 -18 -13 -41 -19 -84 -11 -76 5 4 15 1 24 -7
26 -22 61 -30 61 -13 0 9 -6 18 -12 20 -10 4 -10 8 1 15 12 9 12 12 -1 26 -17
17 -29 11 -21 -10 6 -16 -14 -18 -35 -5 -11 7 -8 14 14 34 21 20 30 23 40 14
41 -37 44 -38 44 -23 0 8 -4 18 -10 21 -5 3 -10 16 -10 28 0 18 -2 19 -10 7
-7 -11 -8 -5 -4 19 5 22 3 36 -6 41 -20 12 -2 30 31 30 27 0 29 2 29 39 0 22
6 42 13 44 7 4 3 8 -10 12 -13 4 -23 14 -23 21 0 17 22 18 38 2 9 -9 12 -8 12
5 0 9 -7 17 -14 17 -11 0 -16 15 -18 53 -2 43 -7 54 -25 62 -13 5 -23 16 -23
23 0 10 5 10 20 2 11 -6 25 -8 31 -4 7 4 -2 13 -22 21 l-33 14 22 15 c13 9 31
13 42 9 14 -5 20 -2 20 10 0 12 -6 15 -20 10 -10 -3 -28 -1 -39 4 -16 9 -20 7
-24 -7 -3 -9 -5 -2 -6 16 -1 19 -6 32 -14 32 -8 0 -22 9 -32 20 -18 20 -18 21
3 40 28 27 33 25 27 -7 -3 -16 -2 -21 1 -13 4 8 20 27 35 43 28 26 37 47 22
47 -13 0 -30 -14 -34 -27 -3 -9 -9 -9 -19 -2 -13 8 -13 11 0 22 8 6 22 21 30
31 13 18 13 19 0 14 -11 -4 -15 2 -16 21 -3 101 -10 141 -24 139 -8 -2 -17
-14 -20 -28 -9 -37 -18 -11 -16 45 2 49 3 50 31 48 17 -1 25 0 18 3 -6 3 -17
25 -24 50 -14 46 -16 47 -64 29 l-20 -8 20 17 c20 16 20 16 -12 46 -18 16 -33
32 -33 34 0 3 15 2 33 -1 33 -5 34 -4 29 26 -2 17 -9 31 -14 31 -5 0 -6 -9 -3
-20 7 -23 -7 -27 -24 -6 -9 10 -9 16 -1 21 6 4 9 13 6 20 -3 8 -1 28 4 46 7
22 5 41 -4 64 -9 21 -13 63 -12 112 1 43 -1 86 -6 95 -5 11 -2 22 8 33 13 12
14 19 5 28 -6 6 -11 33 -11 59 0 41 3 48 19 48 26 0 36 17 20 36 -10 13 -10
17 2 25 8 5 18 9 22 9 5 0 6 8 2 19 -4 13 0 20 15 24 12 3 20 13 20 26 0 23
-19 28 -37 10 -8 -8 -15 -4 -27 12 -13 19 -16 20 -16 6 0 -19 -15 -23 -25 -7
-4 6 -10 8 -14 5 -5 -2 -17 5 -27 16 -15 16 -16 22 -5 29 10 5 12 18 8 39 -5
23 -3 33 8 37 8 4 15 13 15 21 0 8 -4 12 -8 9 -4 -2 -6 11 -4 29 l4 34 24 -27
c20 -23 25 -25 33 -12 6 8 14 11 18 6 4 -4 0 -13 -10 -20 -17 -13 -23 -36 -9
-36 4 0 15 9 25 20 17 20 43 29 32 10 -3 -5 3 -18 14 -29 19 -19 19 -19 26 2
4 12 7 26 6 30 -1 5 3 6 9 2 6 -4 8 -21 4 -41 -5 -29 -4 -33 10 -28 11 4 16 1
16 -10 0 -19 26 -22 33 -3 3 9 9 9 29 -1 14 -8 37 -15 52 -15 14 -1 26 -5 26
-9 0 -5 5 -8 10 -8 6 0 10 7 10 15 0 8 5 15 10 15 13 0 13 -13 -2 -45 -10 -22
-9 -28 3 -36 21 -13 39 -11 39 6 0 8 4 15 10 15 5 0 9 -10 7 -21 -1 -12 4 -24
11 -26 6 -3 12 2 12 11 0 9 5 16 10 16 6 0 10 -9 10 -21 0 -11 8 -28 17 -37
16 -16 15 -17 0 -20 -10 -2 -15 -7 -12 -12 3 -5 19 -4 36 2 23 8 28 15 24 29
-8 24 4 25 21 2 12 -16 13 -16 14 8 0 15 7 30 16 33 20 8 11 19 -18 23 -12 2
-27 8 -34 14 -10 8 -18 7 -29 -4 -13 -14 -18 -14 -45 -1 -37 19 -38 31 -5 44
14 5 25 13 25 18 0 14 39 56 46 49 3 -3 0 -15 -8 -26 -8 -12 -18 -18 -21 -14
-4 3 -7 -1 -7 -11 0 -9 5 -14 10 -11 6 3 10 1 10 -4 0 -6 5 -11 11 -11 6 0 9
7 5 15 -3 9 9 27 33 47 35 29 37 34 22 45 -13 10 -13 12 -1 9 8 -2 27 -7 43
-10 15 -4 27 -10 27 -14 0 -4 -23 -18 -51 -31 -63 -30 -58 -38 7 -12 48 19 49
20 46 57 -3 33 -1 36 12 25 10 -8 26 -11 42 -7 24 6 25 10 22 57 -4 50 -6 53
-33 42 -21 -8 -30 3 -17 20 9 10 8 17 0 25 -9 9 -7 12 10 12 12 0 22 -4 22
-10 0 -5 4 -10 8 -10 5 0 9 14 9 30 0 17 -3 27 -6 23 -19 -27 -101 -36 -101
-12 0 5 -9 9 -19 9 -14 0 -18 5 -14 20 4 15 11 19 32 15 23 -5 24 -4 4 4 -11
5 -30 7 -42 4 -17 -4 -20 -10 -14 -32 3 -14 11 -29 17 -33 7 -5 6 -8 -4 -8 -9
0 -11 -3 -4 -8 6 -4 8 -18 4 -32 l-6 -25 -17 32 c-13 24 -14 33 -4 36 9 3 9 9
0 26 -7 11 -13 30 -13 41 0 11 -4 20 -10 20 -5 0 -7 -7 -3 -16 5 -15 1 -16
-33 -10 -21 4 -40 9 -42 10 -7 8 12 36 24 36 17 0 18 22 2 38 -9 9 -8 12 6 12
9 0 14 -4 11 -10 -3 -5 0 -10 8 -10 11 0 13 -7 10 -21 -4 -16 -2 -20 8 -17 16
5 19 49 4 61 -17 12 16 27 37 16 11 -6 18 -6 18 -1 0 6 -9 12 -20 15 -28 7
-26 34 3 33 16 -1 21 4 19 17 -2 10 3 17 13 17 8 0 15 -7 15 -15 0 -17 26 -20
35 -4 4 6 -1 17 -11 25 -18 14 -17 15 9 9 19 -4 27 -1 27 9 0 8 -6 17 -12 20
-7 2 3 4 22 3 34 -2 35 -1 32 32 -2 19 2 45 10 59 l13 25 5 -29 c6 -34 35 -40
34 -7 0 13 7 24 18 26 11 3 18 0 18 -9 0 -19 36 17 45 45 3 12 11 21 16 21 5
0 9 5 9 11 0 17 29 41 41 33 9 -5 7 -11 -5 -19 -15 -11 -14 -13 8 -17 20 -4
23 -1 22 18 0 13 -7 26 -13 29 -22 8 -14 23 10 18 21 -4 22 -4 3 11 -21 17
-11 22 13 7 11 -7 20 -4 32 10 14 17 21 18 38 9 17 -9 20 -8 15 5 -4 10 0 15
10 15 9 0 16 -6 17 -12 0 -7 8 6 17 29 18 43 42 76 42 56 0 -5 26 14 58 43 31
30 63 54 70 54 7 0 11 4 8 8 -3 5 8 21 25 36 16 15 29 32 29 38 0 5 9 6 20 3
12 -4 20 -2 20 5 0 6 4 8 10 5 5 -3 7 0 4 8 -3 8 -1 18 5 22 6 3 11 13 11 22
0 8 9 27 19 42 12 16 19 42 19 62 -1 19 1 41 5 49 11 25 -8 41 -51 42 -23 0
-42 5 -42 10 0 7 -16 8 -40 4 -33 -5 -40 -3 -40 10 0 13 -3 14 -15 4 -30 -25
-16 17 17 49 l31 31 -32 -10 c-46 -13 -29 5 24 26 49 18 63 41 18 28 -37 -10
-74 -8 -82 4 -4 7 -37 6 -101 -4 -52 -7 -115 -13 -140 -13 -44 1 -44 2 21 15
76 15 236 72 324 117 85 42 246 149 295 197 73 70 18 43 -65 -33 -34 -31 -114
-77 -109 -63 3 8 19 20 35 26 36 15 39 35 4 26 -18 -5 -27 -2 -32 10 -5 13 -7
13 -14 2 -12 -18 -11 -26 4 -31 16 -5 -22 1 -49 9 -14 4 -31 -3 -51 -20 -36
-30 -58 -34 -49 -8 4 11 0 9 -10 -5 -9 -13 -26 -23 -38 -23 -12 0 -31 -7 -43
-15 -12 -8 -28 -12 -36 -9 -8 3 -18 1 -22 -5 -3 -6 0 -11 7 -12 17 -1 -23 -18
-42 -18 -9 0 -8 4 5 9 14 6 5 8 -32 7 -42 -1 -53 -5 -57 -20 -4 -15 -11 -18
-30 -15 -14 3 -26 1 -26 -3 0 -5 -13 -9 -29 -9 -17 0 -31 -6 -35 -16 -5 -12
-14 -15 -37 -10 -18 3 -28 2 -24 -4 3 -6 -3 -10 -14 -10 -14 0 -19 5 -15 14 4
11 0 13 -15 9 -11 -3 -18 -10 -14 -16 4 -7 0 -8 -12 -3 -10 4 -21 2 -24 -3 -4
-5 -20 -11 -36 -13 -23 -2 -29 1 -27 14 2 12 -3 15 -18 11 -11 -3 -20 -9 -20
-14 0 -5 -11 -9 -25 -9 -14 0 -25 5 -25 12 0 9 -3 9 -12 0 -7 -7 -25 -12 -41
-12 -46 0 -157 22 -157 32 0 4 -7 8 -15 8 -8 0 -15 -5 -15 -11 0 -5 -5 -7 -10
-4 -6 4 -8 11 -5 16 4 5 2 9 -4 9 -5 0 -11 -5 -13 -10 -5 -15 -106 14 -124 36
-14 17 -15 17 -10 1 4 -14 2 -16 -12 -8 -49 25 -113 51 -128 51 -13 0 -14 3
-4 15 14 16 3 20 -19 6 -8 -5 -29 0 -58 17 -33 18 -41 27 -31 33 19 13 0 11
-24 -2 -15 -8 -19 -8 -14 0 4 6 2 11 -5 11 -13 0 -97 59 -155 109 -22 20 -51
45 -65 57 -54 47 -219 241 -219 259 0 4 -14 29 -31 55 -17 27 -31 52 -31 57 0
4 -5 15 -12 23 -17 20 -41 75 -57 128 -7 23 -16 42 -20 42 -9 0 -59 207 -59
248 0 17 -4 34 -10 37 -15 9 -3 266 19 385 22 124 57 249 75 270 8 8 19 32 27
53 7 20 18 37 24 37 5 0 16 14 23 30 8 17 21 30 29 30 9 0 13 6 9 15 -3 9 18
38 58 80 35 36 66 65 70 65 13 0 5 -20 -19 -47 -58 -65 -85 -102 -85 -116 0
-9 -6 -20 -12 -24 -19 -12 -40 -53 -28 -53 5 0 10 4 10 9 0 5 12 16 26 26 32
21 56 6 33 -21 -13 -16 -12 -17 9 -12 12 4 22 2 22 -2 0 -5 15 -12 33 -15 17
-4 38 -12 45 -17 8 -7 16 -7 25 0 8 7 18 7 27 2 12 -8 13 -13 3 -29 -13 -21
-1 -31 35 -31 15 0 15 2 2 10 -11 7 -5 9 22 7 20 -1 34 -5 31 -10 -6 -10 21
-35 51 -47 17 -6 26 -6 26 0 0 6 5 10 11 10 6 0 8 -9 4 -22 -4 -15 -3 -19 3
-10 7 10 14 7 33 -12 27 -27 74 -30 89 -6 4 7 15 10 25 7 9 -4 14 -3 10 3 -3
6 -2 10 4 10 17 0 23 -20 11 -35 -6 -7 -13 -24 -14 -37 -2 -13 -8 -36 -15 -51
-6 -16 -11 -35 -11 -43 0 -8 -5 -14 -10 -14 -14 0 -3 -311 11 -335 4 -5 9 -27
13 -48 4 -23 11 -35 18 -31 6 4 8 -1 3 -15 -4 -12 -2 -21 4 -21 6 0 11 6 12
13 0 6 5 2 11 -10 15 -31 30 -29 18 1 -5 13 -6 33 -3 45 4 17 8 19 19 10 8 -6
14 -8 14 -5 0 4 7 0 16 -9 9 -9 14 -19 10 -22 -3 -3 -1 -12 5 -20 9 -10 8 -13
-1 -13 -7 0 -19 8 -26 18 -7 9 -14 12 -14 5 0 -16 28 -43 57 -54 12 -4 23 -13
23 -19 0 -14 -5 -13 -50 10 -47 24 -50 24 -50 4 0 -11 5 -14 16 -10 9 3 25 -1
37 -9 21 -15 21 -15 -10 -9 -28 5 -32 4 -30 -14 1 -16 4 -18 14 -10 10 8 12 7
8 -4 -7 -17 96 -126 114 -120 6 2 11 -6 11 -17 0 -14 6 -21 20 -21 12 0 36
-16 56 -35 35 -35 54 -44 54 -24 0 6 12 -4 27 -21 14 -17 38 -36 52 -42 64
-24 247 -40 260 -22 3 5 46 10 94 11 76 2 87 0 77 -12 -7 -8 -20 -15 -30 -15
-36 0 -32 -32 10 -70 22 -20 40 -44 40 -53 0 -8 16 -32 35 -53 19 -20 35 -43
35 -50 0 -8 6 -14 13 -14 18 0 87 -149 88 -191 1 -31 2 -32 8 -9 9 31 35 33
39 3 2 -13 10 -23 19 -23 9 0 13 6 9 15 -3 9 0 15 9 15 22 0 30 -22 12 -35
-15 -11 -14 -13 7 -25 16 -8 37 -10 58 -5 18 4 51 7 73 7 30 0 35 2 20 8 -16
7 -12 9 23 15 23 4 42 13 42 19 1 13 127 76 152 76 11 0 15 5 12 15 -4 9 -1
15 7 15 8 0 25 17 38 37 22 34 25 36 32 18 7 -19 8 -19 8 2 1 17 5 21 18 16
12 -5 15 -2 10 10 -4 11 -1 17 8 17 8 0 15 8 15 19 0 10 7 25 16 32 15 12 16
11 9 -11 l-7 -25 19 25 c10 14 30 46 43 72 13 26 26 45 29 42 6 -6 46 78 43
92 -1 6 9 23 23 38 14 15 25 31 25 37 0 5 5 18 10 29 6 11 15 29 20 40 6 11
10 27 10 35 0 8 5 15 10 15 6 0 10 13 10 29 0 16 7 48 15 71 8 23 15 55 15 69
0 15 6 33 13 39 18 19 19 363 2 462 -24 132 -26 143 -52 210 -14 36 -32 85
-41 110 -18 52 -76 165 -92 180 -3 3 -21 30 -40 60 -19 30 -46 67 -60 81 -14
14 -53 55 -86 90 -34 35 -79 78 -100 96 -22 17 -48 40 -59 50 -57 52 -277 174
-360 199 -22 7 -66 22 -98 33 -147 52 -408 73 -617 50 -124 -14 -129 -14 -136
-21 -3 -4 -12 -4 -20 -1 -8 3 -20 1 -27 -5 -18 -14 -74 -25 -80 -15 -3 5 9 15
26 23 18 7 38 22 45 32 7 10 17 18 22 18 15 0 49 33 44 42 -3 4 7 3 21 -4 22
-10 29 -10 39 2 6 9 24 20 40 25 16 6 28 14 27 20 -1 5 6 12 16 16 36 15 -41
7 -122 -11z m-175 -155 c0 -8 -7 -15 -15 -15 -26 0 -18 20 13 29 1 1 2 -6 2
-14z m-40 -34 c0 -12 -20 -25 -27 -18 -7 7 6 27 18 27 5 0 9 -4 9 -9z m320
-825 c0 -27 23 -49 65 -64 l30 -10 -31 -1 c-39 -1 -84 43 -84 83 0 15 4 25 10
21 6 -3 10 -16 10 -29z m405 -53 c14 -13 38 -23 53 -23 22 -1 24 -2 10 -10
-11 -7 -26 -6 -45 1 -48 18 -63 38 -62 83 l1 41 8 -35 c5 -19 20 -45 35 -57z
m-380 67 c3 -5 1 -10 -4 -10 -6 0 -11 5 -11 10 0 6 2 10 4 10 3 0 8 -4 11 -10z
m385 -35 c0 -5 -5 -3 -10 5 -5 8 -10 20 -10 25 0 6 5 3 10 -5 5 -8 10 -19 10
-25z m-98 -239 c4 -18 1 -22 -13 -19 -14 4 -17 17 -10 41 4 12 20 -3 23 -22z
m-607 -25 c-8 -14 44 -71 66 -71 11 0 17 -4 14 -10 -11 -18 -36 -11 -66 19
-22 23 -29 39 -29 68 1 31 3 35 11 20 5 -9 8 -21 4 -26z m55 -12 c7 -13 5 -16
-12 -15 -14 1 -24 10 -29 28 -13 50 11 42 41 -13z m960 -46 l44 -23 -31 0
c-20 0 -40 8 -54 23 -35 36 -51 65 -44 77 4 7 14 -2 23 -22 11 -21 34 -41 62
-55z m-1080 57 c0 -5 -5 -10 -11 -10 -5 0 -7 5 -4 10 3 6 8 10 11 10 2 0 4 -4
4 -10z m806 -16 c-4 -9 -9 -15 -11 -12 -3 3 -3 13 1 22 4 9 9 15 11 12 3 -3 3
-13 -1 -22z m-316 -82 c0 -13 -3 -12 -15 4 -19 25 -19 40 0 24 8 -7 15 -20 15
-28z m-183 6 c-3 -8 -6 -5 -6 6 -1 11 2 17 5 13 3 -3 4 -12 1 -19z m37 -19
c-2 -3 6 -16 17 -27 l20 -22 -23 0 -23 0 25 -20 c14 -11 20 -20 15 -20 -12 0
-57 29 -66 43 -8 12 1 47 12 47 5 0 5 8 2 17 -6 15 -5 16 9 3 9 -8 14 -18 12
-21z m440 -94 c-9 -14 -19 -23 -22 -20 -5 4 26 45 35 45 2 0 -4 -11 -13 -25z
m-374 5 c0 -5 -5 -10 -11 -10 -5 0 -7 5 -4 10 3 6 8 10 11 10 2 0 4 -4 4 -10z
m359 -93 c5 -13 24 -31 43 -40 28 -14 30 -17 10 -17 -26 0 -72 41 -72 65 0 22
9 18 19 -8z m-540 -72 c-3 -2 -16 10 -29 28 l-23 32 29 -27 c15 -15 26 -30 23
-33z m361 10 c19 -23 8 -26 -19 -4 -16 13 -18 19 -8 19 8 0 20 -7 27 -15z
m610 -24 c0 -16 -9 -36 -22 -47 -21 -19 -21 -19 -14 1 10 25 14 45 15 68 1 29
21 9 21 -22z m-140 3 c0 -2 -7 -4 -15 -4 -8 0 -15 4 -15 10 0 5 7 7 15 4 8 -4
15 -8 15 -10z m-423 -16 c-3 -8 -6 -5 -6 6 -1 11 2 17 5 13 3 -3 4 -12 1 -19z
m-139 -94 l42 -22 -31 -4 c-24 -4 -35 1 -59 29 -33 37 -33 37 -23 73 7 23 8
22 18 -15 9 -32 19 -44 53 -61z m119 74 c-3 -8 -6 -5 -6 6 -1 11 2 17 5 13 3
-3 4 -12 1 -19z m454 6 c12 -14 11 -16 -5 -13 -11 2 -21 10 -24 17 -5 17 13
15 29 -4z m-24 -24 c14 -11 32 -20 39 -20 7 0 16 -5 19 -10 4 -6 -7 -9 -29 -8
-19 2 -34 8 -33 13 1 6 -6 9 -15 9 -10 -1 -15 3 -12 8 4 6 0 14 -7 19 -11 7
-12 9 -1 9 8 0 25 -9 39 -20z m-392 -10 c3 -5 1 -10 -4 -10 -6 0 -11 5 -11 10
0 6 2 10 4 10 3 0 8 -4 11 -10z m-24 -23 c-1 -12 -15 -9 -19 4 -3 6 1 10 8 8
6 -3 11 -8 11 -12z m-121 -144 c11 -15 19 -38 18 -54 -3 -35 -18 -39 -18 -5 0
30 -36 76 -60 76 -20 0 -33 13 -24 23 11 10 64 -15 84 -40z m335 27 c3 -5 -3
-10 -14 -10 -12 0 -21 5 -21 10 0 6 6 10 14 10 8 0 18 -4 21 -10z m65 -22 c0
-30 -1 -31 -19 -14 -16 14 -17 21 -8 32 19 21 27 16 27 -18z m-135 -49 c-5
-14 -3 -19 3 -15 12 7 37 -32 27 -42 -9 -10 -40 13 -43 32 -4 19 4 46 13 46 4
0 3 -10 0 -21z m-410 3 c6 -4 19 -20 28 -37 l18 -30 -25 28 c-23 25 -26 26
-26 8 0 -25 37 -61 62 -61 10 0 18 -4 18 -10 0 -14 -16 -13 -48 3 -30 15 -41
15 -60 4 -16 -11 -28 19 -13 37 6 7 7 17 3 21 -4 5 -1 5 6 1 9 -6 9 -12 0 -29
-10 -19 -9 -20 4 -10 8 7 18 9 23 5 4 -4 3 3 -4 15 -21 41 -12 75 14 55z m432
-91 c17 -7 42 -9 59 -5 23 5 26 4 18 -6 -15 -15 -118 -15 -109 1 5 8 -19 31
-26 25 -2 -2 -5 14 -7 37 l-2 42 19 -41 c12 -26 29 -45 48 -53z m-412 -29 c-3
-3 -11 0 -18 7 -9 10 -8 11 6 5 10 -3 15 -9 12 -12z m815 -552 c0 -5 -2 -10
-4 -10 -3 0 -8 5 -11 10 -3 6 -1 10 4 10 6 0 11 -4 11 -10z m160 -100 c0 -5
-2 -10 -4 -10 -3 0 -8 5 -11 10 -3 6 -1 10 4 10 6 0 11 -4 11 -10z m59 -33
c-2 -1 -13 -9 -24 -17 -19 -14 -19 -14 -6 3 7 9 18 17 24 17 6 0 8 -1 6 -3z
m-49 -32 c0 -2 -22 -16 -50 -30 -27 -14 -50 -23 -50 -20 0 2 21 16 48 29 53
28 52 28 52 21z m30 -435 c0 -5 -4 -10 -10 -10 -5 0 -10 5 -10 10 0 6 5 10 10
10 6 0 10 -4 10 -10z m-18 -49 c-5 -3 -19 -24 -30 -46 -16 -31 -21 -35 -22
-18 0 31 11 54 23 46 6 -4 8 0 4 11 -4 10 -3 15 3 11 6 -3 10 -1 10 5 0 6 5 8
11 4 7 -4 7 -9 1 -13z m-527 -451 c3 -5 1 -10 -4 -10 -6 0 -11 5 -11 10 0 6 2
10 4 10 3 0 8 -4 11 -10z m-25 -46 c0 -9 -5 -14 -12 -12 -18 6 -21 28 -4 28 9
0 16 -7 16 -16z m-411 -366 c6 -17 5 -24 -5 -26 -19 -5 -18 -32 2 -32 8 0 13
-4 9 -10 -3 -5 -13 -6 -21 -3 -12 4 -14 15 -9 43 5 32 3 39 -12 43 -14 4 -13
5 5 6 15 1 25 -7 31 -21z m35 -54 c3 -8 2 -12 -4 -9 -6 3 -10 10 -10 16 0 14
7 11 14 -7z m54 -19 c-1 -14 -6 -25 -10 -25 -4 0 -6 10 -4 23 6 28 5 27 11 27
3 0 4 -11 3 -25z m142 -40 c9 -11 10 -15 1 -15 -8 0 -10 -8 -5 -22 3 -13 4
-20 0 -17 -11 11 -25 69 -17 69 5 0 14 -7 21 -15z m50 -64 c0 -5 3 -16 6 -25
5 -13 -1 -16 -25 -16 -34 0 -36 2 -21 31 11 19 40 27 40 10z m-150 -93 c0 -19
-2 -20 -10 -8 -13 19 -13 30 0 30 6 0 10 -10 10 -22z m-335 -18 c3 -5 1 -10
-4 -10 -6 0 -11 5 -11 10 0 6 2 10 4 10 3 0 8 -4 11 -10z m55 -10 c0 -5 -4
-10 -10 -10 -5 0 -10 5 -10 10 0 6 5 10 10 10 6 0 10 -4 10 -10z m137 -12 c-3
-8 -6 -5 -6 6 -1 11 2 17 5 13 3 -3 4 -12 1 -19z m53 6 c0 -8 -4 -12 -10 -9
-5 3 -10 10 -10 16 0 5 5 9 10 9 6 0 10 -7 10 -16z m-152 -22 c2 -7 -3 -12
-12 -12 -9 0 -16 7 -16 16 0 17 22 14 28 -4z m116 -17 c-4 -8 -12 -15 -20 -15
-20 0 -17 18 4 23 9 3 18 5 19 6 1 0 0 -6 -3 -14z m-34 -65 c0 -5 -4 -10 -10
-10 -5 0 -10 5 -10 10 0 6 5 10 10 10 6 0 10 -4 10 -10z m160 -21 c0 -11 -12
-11 -35 -3 -12 5 -14 9 -4 14 14 9 39 2 39 -11z m-500 -54 c0 -8 -4 -15 -10
-15 -5 0 -10 7 -10 15 0 8 5 15 10 15 6 0 10 -7 10 -15z m-10 -45 c0 -5 -4
-10 -10 -10 -5 0 -10 5 -10 10 0 6 5 10 10 10 6 0 10 -4 10 -10z m-530 -580
c0 -5 -4 -10 -10 -10 -5 0 -10 5 -10 10 0 6 5 10 10 10 6 0 10 -4 10 -10z
m518 -69 c22 -19 28 -31 15 -31 -8 1 -47 50 -40 50 2 0 14 -8 25 -19z m29 -97
c-3 -3 -12 -4 -19 -1 -8 3 -5 6 6 6 11 1 17 -2 13 -5z m13 -155 c0 -11 -4 -17
-10 -14 -5 3 -10 13 -10 21 0 8 5 14 10 14 6 0 10 -9 10 -21z m-40 1 c0 -5 -4
-10 -10 -10 -5 0 -10 5 -10 10 0 6 5 10 10 10 6 0 10 -4 10 -10z m-370 -70 c0
-11 -4 -20 -10 -20 -5 0 -10 9 -10 20 0 11 5 20 10 20 6 0 10 -9 10 -20z m421
-30 c-4 -20 -10 -30 -14 -23 -4 6 -2 23 4 37 16 34 19 29 10 -14z m-31 21 c0
-6 -4 -13 -10 -16 -5 -3 -10 1 -10 9 0 9 5 16 10 16 6 0 10 -4 10 -9z m-60
-17 c0 -3 -7 -12 -15 -20 -16 -17 -18 -14 -9 10 6 15 24 23 24 10z m-330 -55
c0 -16 -4 -29 -10 -29 -5 0 -10 16 -10 36 0 21 4 33 10 29 6 -3 10 -19 10 -36z
m370 -9 c8 -5 11 -10 5 -10 -5 0 -17 5 -25 10 -8 5 -10 10 -5 10 6 0 17 -5 25
-10z m-377 -472 c-2 -386 -5 -444 -18 -454 -14 -10 -14 -12 1 -18 15 -6 16
-40 10 -423 -4 -229 -9 -419 -11 -422 -1 -4 -6 -87 -10 -185 -3 -98 -10 -188
-14 -200 -5 -12 -6 -38 -3 -58 3 -26 0 -38 -8 -38 -9 0 -11 -12 -7 -40 3 -27
1 -40 -6 -40 -9 0 -12 32 -11 108 0 59 1 112 3 117 1 6 1 128 1 272 -1 252 13
443 31 443 5 0 9 5 9 10 0 6 -6 10 -13 10 -10 0 -12 68 -11 323 2 470 6 647
13 607 10 -58 24 -16 16 50 -4 37 -3 66 4 79 9 16 9 26 0 42 -8 15 -8 19 0 15
8 -5 11 30 11 118 0 69 3 126 8 126 4 0 6 -199 5 -442z m417 438 c0 -11 -19
-15 -25 -6 -3 5 1 10 9 10 9 0 16 -2 16 -4z m-5 -66 c3 -5 -1 -10 -10 -10 -9
0 -13 5 -10 10 3 6 8 10 10 10 2 0 7 -4 10 -10z m-458 -192 c-3 -8 -6 -5 -6 6
-1 11 2 17 5 13 3 -3 4 -12 1 -19z m0 -65 c-3 -10 -5 -4 -5 12 0 17 2 24 5 18
2 -7 2 -21 0 -30z m527 -104 c-7 -11 -34 -12 -34 -1 0 14 11 21 26 15 8 -3 11
-9 8 -14z m-7 -45 c-3 -3 -12 -4 -19 -1 -8 3 -5 6 6 6 11 1 17 -2 13 -5z
m-104 -52 c9 -19 8 -25 -3 -32 -10 -7 -11 -10 -2 -10 6 0 12 -7 12 -15 0 -23
-17 -18 -24 8 -7 26 -7 109 1 87 2 -8 10 -25 16 -38z m92 28 c3 -5 1 -10 -4
-10 -6 0 -11 5 -11 10 0 6 2 10 4 10 3 0 8 -4 11 -10z m11 -46 c-3 -9 -6 -20
-6 -25 0 -5 -6 -9 -14 -9 -8 0 -13 10 -13 25 0 18 5 25 19 25 14 0 18 -5 14
-16z m-112 -79 c3 -8 1 -15 -4 -15 -6 0 -10 7 -10 15 0 8 2 15 4 15 2 0 6 -7
10 -15z m-64 -339 c0 -3 -4 -8 -10 -11 -5 -3 -10 -1 -10 4 0 6 5 11 10 11 6 0
10 -2 10 -4z m40 -22 c0 -14 -4 -23 -10 -19 -5 3 -10 15 -10 26 0 10 5 19 10
19 6 0 10 -12 10 -26z m150 -256 c0 -21 -4 -38 -10 -38 -5 0 -10 18 -10 40 0
33 -3 40 -20 40 -13 0 -20 -7 -20 -20 0 -13 -7 -20 -20 -20 -11 0 -20 5 -20
10 0 6 7 10 16 10 9 0 14 6 12 12 -9 26 16 37 45 20 22 -13 27 -23 27 -54z
m-150 32 c0 -5 -6 -10 -14 -10 -8 0 -18 5 -21 10 -3 6 3 10 14 10 12 0 21 -4
21 -10z m320 -93 c0 -8 -3 -17 -7 -20 -9 -9 -34 13 -27 24 8 14 34 11 34 -4z
m-160 -27 c0 -5 -7 -10 -15 -10 -8 0 -15 5 -15 10 0 6 7 10 15 10 8 0 15 -4
15 -10z m-160 -19 c6 -11 6 -22 1 -25 -5 -3 -11 5 -13 19 -6 30 -2 32 12 6z
m265 -1 c3 -5 1 -10 -4 -10 -6 0 -11 5 -11 10 0 6 2 10 4 10 3 0 8 -4 11 -10z
m5 -30 c0 -5 -4 -10 -10 -10 -5 0 -10 5 -10 10 0 6 5 10 10 10 6 0 10 -4 10
-10z m-355 -540 c3 -5 2 -10 -4 -10 -5 0 -13 5 -16 10 -3 6 -2 10 4 10 5 0 13
-4 16 -10z m13 -52 c-6 -18 -28 -21 -28 -4 0 9 7 16 16 16 9 0 14 -5 12 -12z
m-181 -370 c-3 -8 -6 -5 -6 6 -1 11 2 17 5 13 3 -3 4 -12 1 -19z m0 -40 c-3
-8 -6 -5 -6 6 -1 11 2 17 5 13 3 -3 4 -12 1 -19z m183 -4 c0 -8 -4 -12 -10 -9
-5 3 -10 10 -10 16 0 5 5 9 10 9 6 0 10 -7 10 -16z m-193 -86 c-3 -7 -5 -2 -5
12 0 14 2 19 5 13 2 -7 2 -19 0 -25z m-7 -108 c-11 -57 -16 -67 -27 -57 -3 4
-1 18 5 32 7 14 12 42 12 62 0 25 3 34 10 27 7 -7 7 -28 0 -64z m-144 33 c-10
-10 -19 5 -10 18 6 11 8 11 12 0 2 -7 1 -15 -2 -18z"/>
<path d="M8175 7154 c-4 -41 -4 -78 -1 -81 3 -4 6 12 6 35 0 23 5 42 10 42 6
0 10 18 10 40 0 69 -17 44 -25 -36z"/>
<path d="M8180 6939 c0 -11 5 -17 10 -14 6 3 10 13 10 21 0 8 -4 14 -10 14 -5
0 -10 -9 -10 -21z"/>
<path d="M8183 6870 c0 -25 2 -35 4 -22 2 12 2 32 0 45 -2 12 -4 2 -4 -23z"/>
<path d="M8183 6630 c0 -25 2 -35 4 -22 2 12 2 32 0 45 -2 12 -4 2 -4 -23z"/>
<path d="M8161 6093 c1 -54 5 -109 9 -123 5 -15 8 22 8 98 1 69 -3 122 -9 122
-5 0 -9 -43 -8 -97z"/>
<path d="M8146 5511 c-4 -7 -5 -15 -2 -18 9 -9 19 4 14 18 -4 11 -6 11 -12 0z"/>
<path d="M8958 13453 c7 -3 16 -2 19 1 4 3 -2 6 -13 5 -11 0 -14 -3 -6 -6z"/>
<path d="M7522 12775 c-17 -37 -14 -45 4 -12 9 16 14 31 11 33 -2 2 -9 -7 -15
-21z"/>
<path d="M7491 12699 c-6 -18 -9 -34 -7 -36 2 -2 9 10 15 28 6 18 9 34 7 36
-2 2 -9 -10 -15 -28z"/>
<path d="M7456 12594 c-4 -14 -5 -28 -3 -31 3 -2 8 8 11 23 4 14 5 28 3 31 -3
2 -8 -8 -11 -23z"/>
<path d="M10476 11193 c-6 -14 -5 -15 5 -6 7 7 10 15 7 18 -3 3 -9 -2 -12 -12z"/>
<path d="M10315 10982 c-49 -53 -78 -88 -65 -77 42 34 170 176 158 175 -1 0
-43 -44 -93 -98z"/>
<path d="M10000 10900 c0 -5 5 -10 10 -10 6 0 10 5 10 10 0 6 -4 10 -10 10 -5
0 -10 -4 -10 -10z"/>
<path d="M8324 10871 c20 -22 26 -25 26 -13 0 4 -10 13 -22 21 -23 14 -23 14
-4 -8z"/>
<path d="M10043 10818 c-13 -6 -23 -15 -23 -20 0 -14 16 -9 40 12 25 22 18 25
-17 8z"/>
<path d="M9720 10780 c0 -5 7 -10 15 -10 8 0 15 5 15 10 0 6 -7 10 -15 10 -8
0 -15 -4 -15 -10z"/>
<path d="M8790 10640 c0 -5 5 -10 11 -10 5 0 7 5 4 10 -3 6 -8 10 -11 10 -2 0
-4 -4 -4 -10z"/>
<path d="M7635 10620 c3 -5 8 -10 11 -10 2 0 4 5 4 10 0 6 -5 10 -11 10 -5 0
-7 -4 -4 -10z"/>
<path d="M8838 10623 c7 -3 16 -2 19 1 4 3 -2 6 -13 5 -11 0 -14 -3 -6 -6z"/>
<path d="M9430 10610 c0 -5 5 -10 11 -10 5 0 7 5 4 10 -3 6 -8 10 -11 10 -2 0
-4 -4 -4 -10z"/>
<path d="M9008 10593 c7 -3 16 -2 19 1 4 3 -2 6 -13 5 -11 0 -14 -3 -6 -6z"/>
<path d="M11901 10078 c-10 -25 -43 -3154 -45 -4253 l-1 -660 100 -6 c55 -4
687 -12 1404 -19 1099 -10 1305 -10 1316 1 16 17 23 607 30 2839 3 866 8 1687
11 1823 5 217 3 251 -11 273 l-15 24 -1390 0 -1390 0 -9 -22z"/>
<path d="M9666 9875 c-9 -26 -7 -32 5 -12 6 10 9 21 6 23 -2 3 -7 -2 -11 -11z"/>
<path d="M9550 9800 c0 -5 7 -10 16 -10 8 0 12 5 9 10 -3 6 -10 10 -16 10 -5
0 -9 -4 -9 -10z"/>
<path d="M9362 9600 c0 -14 2 -19 5 -12 2 6 2 18 0 25 -3 6 -5 1 -5 -13z"/>
<path d="M9178 9443 c7 -3 16 -2 19 1 4 3 -2 6 -13 5 -11 0 -14 -3 -6 -6z"/>
<path d="M9192 9366 c7 -8 16 -12 21 -9 11 7 -2 23 -19 23 -12 0 -12 -2 -2
-14z"/>
<path d="M9115 9360 c-3 -5 1 -10 10 -10 9 0 13 5 10 10 -3 6 -8 10 -10 10 -2
0 -7 -4 -10 -10z"/>
<path d="M9150 9351 c0 -5 7 -12 16 -15 24 -9 28 -7 14 9 -14 17 -30 20 -30 6z"/>
<path d="M9225 9310 c-3 -5 1 -10 9 -10 9 0 16 5 16 10 0 6 -4 10 -9 10 -6 0
-13 -4 -16 -10z"/>
<path d="M11682 9285 c0 -16 2 -22 5 -12 2 9 2 23 0 30 -3 6 -5 -1 -5 -18z"/>
<path d="M9188 9292 c-10 -2 -18 -8 -18 -13 0 -13 27 -11 35 2 9 13 4 16 -17
11z"/>
<path d="M9230 9280 c-13 -8 -13 -10 2 -10 9 0 20 5 23 10 8 13 -5 13 -25 0z"/>
<path d="M8560 9092 c0 -18 12 -42 21 -42 14 0 11 20 -6 36 -8 9 -15 11 -15 6z"/>
<path d="M9230 9062 c0 -12 19 -26 26 -19 2 2 -2 10 -11 17 -9 8 -15 8 -15 2z"/>
<path d="M9210 9010 c0 -5 5 -10 10 -10 6 0 10 5 10 10 0 6 -4 10 -10 10 -5 0
-10 -4 -10 -10z"/>
<path d="M9161 8974 c-16 -19 -11 -25 16 -18 13 4 20 11 16 20 -7 18 -14 17
-32 -2z"/>
<path d="M8860 8950 c0 -5 5 -10 10 -10 6 0 10 5 10 10 0 6 -4 10 -10 10 -5 0
-10 -4 -10 -10z"/>
<path d="M8773 8923 c-24 -3 -33 -9 -33 -23 0 -10 -4 -22 -10 -25 -6 -3 -10 4
-10 17 -1 21 -2 21 -11 5 -9 -15 -5 -23 16 -43 31 -29 50 -32 33 -4 -10 15
-10 22 0 32 9 9 15 8 27 -8 9 -12 14 -14 15 -6 0 10 13 13 47 11 38 -3 49 0
51 13 2 12 -8 20 -35 27 -21 6 -42 10 -48 9 -5 -1 -25 -3 -42 -5z m106 -19 c2
-2 -14 -4 -37 -4 -23 0 -42 4 -42 9 0 9 69 4 79 -5z"/>
<path d="M9280 8910 c0 -5 7 -7 15 -4 8 4 15 8 15 10 0 2 -7 4 -15 4 -8 0 -15
-4 -15 -10z"/>
<path d="M9173 8875 c-25 -11 -31 -25 -10 -25 18 0 40 16 36 26 -2 5 -14 5
-26 -1z"/>
<path d="M8930 8870 c0 -5 7 -10 15 -10 8 0 15 5 15 10 0 6 -7 10 -15 10 -8 0
-15 -4 -15 -10z"/>
<path d="M8880 8850 c0 -5 -19 -11 -42 -12 l-43 -1 40 -4 c22 -3 43 -9 46 -15
4 -5 7 2 7 16 0 14 -2 26 -4 26 -2 0 -4 -4 -4 -10z"/>
<path d="M8953 8843 c-39 -15 -41 -20 -10 -18 12 1 27 -2 33 -7 7 -5 14 -3 17
5 10 26 -7 34 -40 20z"/>
<path d="M9063 8808 c-29 -14 -29 -24 -1 -31 26 -7 24 -8 32 21 8 24 2 26 -31
10z"/>
<path d="M9039 8728 c5 -30 6 -31 9 -8 2 14 9 28 16 32 7 5 3 8 -10 8 -18 0
-20 -5 -15 -32z"/>
<path d="M11672 8720 c0 -19 2 -27 5 -17 2 9 2 25 0 35 -3 9 -5 1 -5 -18z"/>
<path d="M7997 8733 c-4 -3 -7 -11 -7 -17 0 -6 5 -5 12 2 6 6 9 14 7 17 -3 3
-9 2 -12 -2z"/>
<path d="M8718 8663 c7 -3 16 -2 19 1 4 3 -2 6 -13 5 -11 0 -14 -3 -6 -6z"/>
<path d="M8641 8624 c0 -11 3 -14 6 -6 3 7 2 16 -1 19 -3 4 -6 -2 -5 -13z"/>
<path d="M8611 8414 c0 -11 3 -14 6 -6 3 7 2 16 -1 19 -3 4 -6 -2 -5 -13z"/>
<path d="M8640 8324 c0 -8 5 -12 10 -9 6 4 8 11 5 16 -9 14 -15 11 -15 -7z"/>
<path d="M8622 8160 c14 -21 48 -28 48 -9 0 6 -7 9 -15 5 -9 -3 -15 0 -15 9 0
8 -7 15 -15 15 -13 0 -13 -3 -3 -20z"/>
<path d="M8740 8155 c-10 -13 -11 -18 -1 -28 10 -9 11 -8 6 6 -5 12 -2 17 9
17 9 0 16 5 16 10 0 15 -16 12 -30 -5z"/>
<path d="M8720 8017 c0 -8 7 -17 15 -21 8 -3 15 -3 15 0 0 3 -7 12 -15 20 -13
13 -15 13 -15 1z"/>
<path d="M8812 7998 c-6 -6 -12 -19 -12 -27 0 -13 2 -13 16 1 9 9 15 21 13 27
-3 9 -8 8 -17 -1z"/>
<path d="M8865 8000 c3 -5 8 -10 11 -10 2 0 4 5 4 10 0 6 -5 10 -11 10 -5 0
-7 -4 -4 -10z"/>
<path d="M9025 7978 c-4 -19 -5 -48 -2 -64 3 -21 4 -17 6 16 1 34 4 41 11 30
8 -11 9 -7 4 15 -9 42 -12 42 -19 3z"/>
<path d="M8680 7990 c0 -5 7 -10 15 -10 8 0 15 5 15 10 0 6 -7 10 -15 10 -8 0
-15 -4 -15 -10z"/>
<path d="M8961 7984 c0 -11 3 -14 6 -6 3 7 2 16 -1 19 -3 4 -6 -2 -5 -13z"/>
<path d="M8995 7990 c-3 -5 -1 -10 4 -10 6 0 11 5 11 10 0 6 -2 10 -4 10 -3 0
-8 -4 -11 -10z"/>
<path d="M8765 7960 c-7 -11 18 -24 35 -18 6 2 1 9 -9 15 -13 8 -22 9 -26 3z"/>
<path d="M8830 7949 c0 -5 5 -7 10 -4 6 3 10 8 10 11 0 2 -4 4 -10 4 -5 0 -10
-5 -10 -11z"/>
<path d="M8989 7928 c4 -28 6 -29 9 -9 2 13 0 27 -5 32 -6 6 -7 -3 -4 -23z"/>
<path d="M8720 7919 c0 -5 5 -7 10 -4 6 3 10 8 10 11 0 2 -4 4 -10 4 -5 0 -10
-5 -10 -11z"/>
<path d="M8720 7874 c1 -29 28 -60 41 -47 7 7 3 19 -15 38 -22 24 -26 25 -26
9z"/>
<path d="M8796 7875 c-9 -26 -7 -32 5 -12 6 10 9 21 6 23 -2 3 -7 -2 -11 -11z"/>
<path d="M8940 7851 c0 -6 5 -13 11 -17 8 -4 7 -9 -2 -15 -7 -4 -10 -11 -6
-15 4 -4 13 1 21 11 11 16 11 21 0 32 -15 15 -24 17 -24 4z"/>
<path d="M8880 7830 c0 -5 7 -10 15 -10 8 0 15 5 15 10 0 6 -7 10 -15 10 -8 0
-15 -4 -15 -10z"/>
<path d="M9201 7824 c0 -11 3 -14 6 -6 3 7 2 16 -1 19 -3 4 -6 -2 -5 -13z"/>
<path d="M9000 7811 c0 -5 6 -12 13 -14 8 -4 7 -6 -3 -6 -8 -1 -20 -18 -27
-38 -9 -30 -8 -39 4 -51 11 -11 19 -12 36 -4 l22 11 -22 0 c-23 1 -29 11 -16
24 3 4 12 2 20 -4 10 -9 13 -8 13 5 0 9 6 16 14 16 21 0 30 20 16 33 -9 9 -15
8 -25 -6 -10 -14 -15 -15 -21 -6 -4 7 -2 15 4 17 8 2 8 8 -2 18 -17 16 -26 18
-26 5z"/>
<path d="M8781 7791 c-7 -5 -11 -14 -7 -19 12 -20 -5 -62 -26 -62 -10 0 -16
-4 -13 -10 8 -13 16 -12 39 5 13 10 20 28 20 55 1 22 1 40 1 40 0 0 -6 -4 -14
-9z"/>
<path d="M8890 7768 c0 -15 5 -30 11 -33 16 -11 17 -2 3 30 l-13 30 -1 -27z"/>
<path d="M8931 7774 c0 -11 3 -14 6 -6 3 7 2 16 -1 19 -3 4 -6 -2 -5 -13z"/>
<path d="M8956 7775 c-3 -9 -6 -24 -5 -33 0 -9 5 -4 10 12 9 32 6 48 -5 21z"/>
<path d="M8810 7769 c0 -5 5 -7 10 -4 6 3 10 8 10 11 0 2 -4 4 -10 4 -5 0 -10
-5 -10 -11z"/>
<path d="M8832 7750 c-9 -14 -8 -21 4 -31 8 -6 17 -9 21 -5 3 3 1 6 -5 6 -16
0 -15 27 0 32 7 3 8 7 2 11 -5 3 -15 -3 -22 -13z"/>
<path d="M8867 7755 c-5 -11 -3 -21 4 -26 6 -4 8 -12 4 -19 -5 -9 -4 -11 3 -6
7 4 12 2 12 -4 0 -6 5 -8 11 -4 8 5 8 8 0 14 -7 4 -15 20 -20 35 -6 25 -8 27
-14 10z"/>
<path d="M8797 7688 c-3 -18 -1 -37 4 -42 5 -6 9 7 9 32 0 50 -6 54 -13 10z"/>
<path d="M8930 7700 c0 -5 5 -10 11 -10 5 0 7 5 4 10 -3 6 -8 10 -11 10 -2 0
-4 -4 -4 -10z"/>
<path d="M9070 7683 c8 -3 18 -11 22 -17 4 -6 10 -7 15 -3 9 10 -16 27 -37 26
-13 -1 -13 -1 0 -6z"/>
<path d="M9000 7655 c0 -17 2 -18 24 -9 18 7 12 24 -10 24 -8 0 -14 -7 -14
-15z"/>
<path d="M8721 7651 c-9 -6 -11 -14 -4 -26 10 -18 15 -15 26 18 7 19 0 21 -22
8z"/>
<path d="M9050 7652 c0 -6 9 -12 20 -15 11 -3 20 -3 20 -1 0 2 -9 8 -20 14
-11 6 -20 7 -20 2z"/>
<path d="M8877 7633 c-10 -9 -9 -41 2 -47 4 -3 6 6 3 21 -3 18 -1 24 7 19 6
-4 11 -2 11 3 0 12 -13 14 -23 4z"/>
<path d="M8821 7614 c0 -11 3 -14 6 -6 3 7 2 16 -1 19 -3 4 -6 -2 -5 -13z"/>
<path d="M8930 7620 c0 -5 5 -10 10 -10 6 0 10 5 10 10 0 6 -4 10 -10 10 -5 0
-10 -4 -10 -10z"/>
<path d="M8949 7598 c-7 -18 -14 -36 -16 -40 -3 -4 5 -6 16 -5 17 1 21 8 21
39 0 46 -4 48 -21 6z"/>
<path d="M8991 7578 c1 -29 1 -64 1 -78 l-2 -25 -18 25 c-15 22 -22 24 -57 19
l-40 -6 43 -2 c41 -1 55 -13 30 -25 -10 -5 -10 -7 0 -12 18 -8 15 -22 -5 -20
-13 1 -18 -6 -18 -24 0 -16 -6 -25 -15 -25 -9 0 -15 9 -15 22 0 11 -3 25 -7
29 -5 4 -8 -9 -8 -28 0 -27 5 -37 20 -41 11 -3 20 -10 20 -16 0 -15 -27 -14
-33 2 -3 6 -5 -4 -4 -23 2 -26 7 -36 22 -38 17 -3 17 -1 5 7 -13 9 -12 13 8
27 14 10 21 22 18 31 -4 11 -2 13 9 9 9 -3 15 0 15 9 0 8 -5 15 -11 15 -5 0
-7 5 -4 10 4 6 11 8 16 4 16 -9 48 25 58 63 13 47 2 143 -16 143 -12 0 -14
-12 -12 -52z"/>
<path d="M8812 7570 c0 -14 2 -19 5 -12 2 6 2 18 0 25 -3 6 -5 1 -5 -13z"/>
<path d="M8861 7564 c0 -11 3 -14 6 -6 3 7 2 16 -1 19 -3 4 -6 -2 -5 -13z"/>
<path d="M8791 7534 c0 -11 3 -14 6 -6 3 7 2 16 -1 19 -3 4 -6 -2 -5 -13z"/>
<path d="M8797 7505 c-17 -24 -17 -25 3 -25 11 0 20 7 20 15 0 8 5 15 10 15 6
0 10 5 10 10 0 18 -25 10 -43 -15z"/>
<path d="M9228 7503 c7 -3 16 -2 19 1 4 3 -2 6 -13 5 -11 0 -14 -3 -6 -6z"/>
<path d="M9047 7493 c-12 -11 -8 -23 8 -23 8 0 15 7 15 15 0 16 -12 20 -23 8z"/>
<path d="M8838 7473 c7 -3 16 -2 19 1 4 3 -2 6 -13 5 -11 0 -14 -3 -6 -6z"/>
<path d="M8793 7430 c0 -25 2 -35 4 -22 2 12 2 32 0 45 -2 12 -4 2 -4 -23z"/>
<path d="M9138 7393 c7 -3 16 -2 19 1 4 3 -2 6 -13 5 -11 0 -14 -3 -6 -6z"/>
<path d="M8829 7376 c6 -7 9 -20 5 -29 -7 -19 14 -33 28 -19 8 8 7 16 -2 27
-8 10 -9 15 -1 15 6 0 11 5 11 10 0 6 -12 10 -26 10 -21 0 -24 -3 -15 -14z"/>
<path d="M8973 7377 c-7 -7 -19 -18 -28 -25 -21 -18 -19 -33 5 -39 17 -4 20
-14 20 -54 0 -29 5 -49 11 -49 7 0 10 20 7 55 -3 48 -1 55 15 55 10 0 16 -4
13 -8 -3 -5 -5 -38 -5 -73 0 -35 -1 -88 -1 -116 -1 -29 3 -53 9 -53 5 0 12
-19 14 -42 2 -24 2 6 0 65 -2 66 1 117 8 129 8 16 8 19 -1 13 -9 -6 -11 4 -9
39 2 25 1 46 -3 46 -5 0 -8 16 -8 35 0 27 -4 35 -17 35 -10 -1 -23 -6 -30 -13z"/>
<path d="M9140 7320 c0 -5 5 -10 11 -10 5 0 7 5 4 10 -3 6 -8 10 -11 10 -2 0
-4 -4 -4 -10z"/>
<path d="M8800 7231 c0 -70 -2 -79 -20 -84 -11 -3 -20 -11 -20 -19 0 -11 2
-10 9 1 5 7 13 11 19 7 13 -8 22 17 22 60 0 24 5 34 15 34 11 0 15 -11 15 -40
0 -22 5 -40 10 -40 6 0 10 18 10 40 0 22 -4 40 -10 40 -5 0 -10 18 -10 40 0
33 -3 40 -20 40 -18 0 -20 -7 -20 -79z"/>
<path d="M8898 7283 c12 -2 32 -2 45 0 12 2 2 4 -23 4 -25 0 -35 -2 -22 -4z"/>
<path d="M9080 7243 c-13 -15 -12 -16 4 -10 10 4 20 7 22 7 2 0 4 5 4 10 0 15
-13 12 -30 -7z"/>
<path d="M8902 7229 c18 -7 33 -7 45 0 14 8 9 10 -27 10 -42 -1 -43 -1 -18
-10z"/>
<path d="M9160 7230 c-9 -6 -10 -10 -3 -10 6 0 15 5 18 10 8 12 4 12 -15 0z"/>
<path d="M8881 7204 c0 -11 3 -14 6 -6 3 7 2 16 -1 19 -3 4 -6 -2 -5 -13z"/>
<path d="M9075 7210 c-3 -5 1 -10 10 -10 9 0 13 5 10 10 -3 6 -8 10 -10 10 -2
0 -7 -4 -10 -10z"/>
<path d="M9185 7210 c-3 -5 1 -10 10 -10 9 0 13 5 10 10 -3 6 -8 10 -10 10 -2
0 -7 -4 -10 -10z"/>
<path d="M8916 7181 c-3 -5 1 -11 9 -15 9 -3 15 0 15 9 0 16 -16 20 -24 6z"/>
<path d="M9040 7180 c0 -5 5 -10 11 -10 5 0 7 5 4 10 -3 6 -8 10 -11 10 -2 0
-4 -4 -4 -10z"/>
<path d="M9087 7160 c-3 -11 -3 -20 -1 -20 2 0 8 9 14 20 6 11 7 20 2 20 -6 0
-12 -9 -15 -20z"/>
<path d="M8910 7102 c0 -5 6 -14 13 -21 14 -11 37 3 37 24 0 5 -4 4 -9 -4 -8
-12 -12 -12 -25 -2 -9 8 -16 9 -16 3z"/>
<path d="M8770 7085 c0 -8 4 -15 9 -15 5 0 11 7 15 15 3 9 0 15 -9 15 -8 0
-15 -7 -15 -15z"/>
<path d="M8880 7090 c0 -5 5 -10 11 -10 5 0 7 5 4 10 -3 6 -8 10 -11 10 -2 0
-4 -4 -4 -10z"/>
<path d="M8815 7080 c3 -5 8 -10 11 -10 2 0 4 5 4 10 0 6 -5 10 -11 10 -5 0
-7 -4 -4 -10z"/>
<path d="M8936 7051 c-3 -5 1 -14 9 -21 13 -10 15 -9 15 9 0 21 -14 28 -24 12z"/>
<path d="M8935 7000 c-3 -5 -2 -10 4 -10 5 0 12 -19 14 -42 3 -41 4 -41 5 10
2 48 -8 66 -23 42z"/>
<path d="M8875 6989 c-4 -6 -5 -12 -2 -15 2 -3 7 2 10 11 7 17 1 20 -8 4z"/>
<path d="M9265 6991 c-3 -5 -1 -12 5 -16 5 -3 10 1 10 9 0 18 -6 21 -15 7z"/>
<path d="M8730 6962 c0 -23 7 -31 35 -42 19 -8 35 -18 35 -23 0 -4 7 -1 16 8
13 12 14 23 6 53 l-10 37 -1 -44 c-1 -37 -3 -42 -16 -31 -17 14 -20 40 -4 40
5 0 7 5 3 12 -5 7 -11 5 -21 -8 -13 -18 -14 -18 -19 4 -9 31 -24 27 -24 -6z"/>
<path d="M9173 6950 c0 -25 2 -35 4 -22 2 12 2 32 0 45 -2 12 -4 2 -4 -23z"/>
<path d="M9210 6960 c-13 -9 -13 -11 0 -20 10 -6 16 -6 18 0 7 20 -3 30 -18
20z"/>
<path d="M9322 6941 c-11 -7 -10 -10 3 -15 26 -10 35 -7 35 9 0 17 -18 19 -38
6z"/>
<path d="M8829 6902 c-20 -47 -11 -88 9 -42 7 16 12 41 10 54 -3 24 -4 23 -19
-12z"/>
<path d="M9105 6916 c-22 -24 -26 -36 -12 -36 8 0 17 10 20 22 7 27 5 30 -8
14z"/>
<path d="M9265 6920 c-3 -5 -1 -10 4 -10 6 0 11 5 11 10 0 6 -2 10 -4 10 -3 0
-8 -4 -11 -10z"/>
<path d="M8994 6864 c21 -44 36 -56 36 -30 0 8 -6 16 -12 19 -10 3 -10 9 0 26
17 29 16 30 -16 29 l-28 -1 20 -43z"/>
<path d="M9350 6871 c0 -22 4 -42 8 -45 4 -2 6 11 4 31 -3 23 0 38 9 44 11 7
10 9 -3 9 -14 0 -18 -8 -18 -39z"/>
<path d="M8726 6893 c-26 -7 -46 -28 -46 -47 0 -12 9 -16 33 -15 17 0 26 3 20
6 -19 7 -16 23 9 44 21 19 19 21 -16 12z"/>
<path d="M9037 6881 c-3 -12 -1 -21 3 -21 15 0 23 21 12 32 -6 6 -11 2 -15
-11z"/>
<path d="M9200 6886 c0 -18 35 -22 45 -6 3 6 2 10 -4 10 -5 0 -16 3 -25 6 -11
4 -16 1 -16 -10z"/>
<path d="M8862 6869 c-14 -22 -15 -39 -3 -39 5 0 12 10 14 23 l4 22 2 -22 c1
-17 7 -23 26 -23 29 0 32 11 8 32 -31 26 -39 27 -51 7z"/>
<path d="M9390 6876 c0 -9 5 -16 10 -16 6 0 10 4 10 9 0 6 -4 13 -10 16 -5 3
-10 -1 -10 -9z"/>
<path d="M8961 6864 c0 -11 3 -14 6 -6 3 7 2 16 -1 19 -3 4 -6 -2 -5 -13z"/>
<path d="M9090 6840 c0 -5 7 -10 15 -10 8 0 15 5 15 10 0 6 -7 10 -15 10 -8 0
-15 -4 -15 -10z"/>
<path d="M8969 6838 c-6 -24 -3 -70 8 -95 14 -36 28 -47 44 -37 7 4 3 14 -13
28 -17 16 -23 31 -22 59 1 21 -3 40 -7 43 -5 3 -9 4 -10 2z"/>
<path d="M9188 6833 c-21 -5 -21 -8 -8 -34 11 -20 40 -27 40 -9 0 6 -4 10 -10
10 -5 0 -10 5 -10 10 0 6 6 10 14 10 8 0 18 5 21 10 6 10 -15 12 -47 3z"/>
<path d="M8640 6799 c0 -27 2 -30 15 -19 8 7 15 21 15 31 0 11 -7 19 -15 19
-10 0 -15 -10 -15 -31z"/>
<path d="M8850 6805 c0 -8 5 -15 10 -15 6 0 10 7 10 15 0 8 -4 15 -10 15 -5 0
-10 -7 -10 -15z"/>
<path d="M8925 6808 c-4 -10 -4 -26 0 -35 6 -17 7 -17 16 0 7 11 7 23 0 35 -9
16 -10 16 -16 0z"/>
<path d="M9086 6813 c-11 -11 -6 -23 9 -23 8 0 15 4 15 9 0 13 -16 22 -24 14z"/>
<path d="M9250 6810 c0 -5 7 -10 15 -10 8 0 15 5 15 10 0 6 -7 10 -15 10 -8 0
-15 -4 -15 -10z"/>
<path d="M8702 6798 c-16 -16 -15 -45 1 -51 10 -4 10 -6 0 -6 -18 -1 -16 -21
2 -21 11 0 15 12 15 45 0 49 -1 50 -18 33z"/>
<path d="M8882 6790 c0 -14 2 -19 5 -12 2 6 2 18 0 25 -3 6 -5 1 -5 -13z"/>
<path d="M9010 6781 c0 -6 5 -13 10 -16 6 -3 10 1 10 9 0 9 -4 16 -10 16 -5 0
-10 -4 -10 -9z"/>
<path d="M9117 6755 c-6 -35 -1 -43 15 -27 8 8 8 18 1 34 -10 22 -10 22 -16
-7z"/>
<path d="M8855 6760 c-3 -5 -1 -10 4 -10 6 0 11 5 11 10 0 6 -2 10 -4 10 -3 0
-8 -4 -11 -10z"/>
<path d="M9085 6760 c-3 -5 1 -10 10 -10 9 0 13 5 10 10 -3 6 -8 10 -10 10 -2
0 -7 -4 -10 -10z"/>
<path d="M8644 6693 c-1 -45 2 -53 17 -53 27 0 32 18 8 25 -17 6 -19 9 -8 17
11 7 11 11 2 15 -7 2 -13 9 -13 15 0 6 9 3 20 -7 16 -14 17 -20 8 -27 -8 -5
-2 -8 17 -9 17 0 24 -3 17 -6 -10 -4 -10 -8 -1 -19 9 -11 8 -18 -2 -31 -12
-14 -12 -16 1 -11 8 2 16 19 18 36 2 18 8 32 14 32 6 0 5 6 -2 15 -11 13 -15
13 -22 3 -8 -10 -11 -10 -15 0 -2 7 -12 19 -21 28 -12 13 -13 17 -2 24 9 5 5
8 -11 7 -22 -2 -24 -6 -25 -54z"/>
<path d="M8940 6743 c0 -5 8 -17 17 -28 14 -18 15 -18 9 -2 -3 10 -6 23 -6 28
0 5 -4 9 -10 9 -5 0 -10 -3 -10 -7z"/>
<path d="M9030 6741 c0 -5 5 -13 10 -16 6 -3 10 -2 10 4 0 5 -4 13 -10 16 -5
3 -10 2 -10 -4z"/>
<path d="M9190 6730 c0 -13 6 -17 20 -13 31 8 33 20 5 25 -19 4 -25 1 -25 -12z"/>
<path d="M9258 6743 c7 -3 16 -2 19 1 4 3 -2 6 -13 5 -11 0 -14 -3 -6 -6z"/>
<path d="M8880 6716 c0 -8 4 -17 9 -21 5 -3 7 -21 4 -39 -3 -19 0 -42 6 -52 9
-16 10 -12 11 24 0 29 4 42 14 42 9 0 12 -8 9 -24 -3 -13 0 -27 6 -30 12 -8
13 -6 15 37 1 16 -3 27 -11 27 -8 0 -18 11 -23 25 -10 27 -40 35 -40 11z"/>
<path d="M9262 6701 c-10 -6 -10 -10 3 -21 13 -11 15 -9 15 9 0 24 0 24 -18
12z"/>
<path d="M8611 6684 c0 -11 3 -14 6 -6 3 7 2 16 -1 19 -3 4 -6 -2 -5 -13z"/>
<path d="M9157 6693 c-13 -12 -7 -23 13 -23 11 0 20 7 20 15 0 15 -21 21 -33
8z"/>
<path d="M8980 6680 c0 -5 5 -10 10 -10 6 0 10 5 10 10 0 6 -4 10 -10 10 -5 0
-10 -4 -10 -10z"/>
<path d="M9208 6683 c7 -3 16 -2 19 1 4 3 -2 6 -13 5 -11 0 -14 -3 -6 -6z"/>
<path d="M8561 6630 c0 -40 2 -42 11 -22 8 16 8 28 0 45 -9 19 -11 17 -11 -23z"/>
<path d="M8808 6663 c12 -2 30 -2 40 0 9 3 -1 5 -23 4 -22 0 -30 -2 -17 -4z"/>
<path d="M9020 6643 c0 -5 5 -15 10 -23 8 -12 10 -11 10 8 0 12 -4 22 -10 22
-5 0 -10 -3 -10 -7z"/>
<path d="M8805 6621 c-7 -12 31 -25 45 -16 6 4 8 11 5 16 -8 12 -42 12 -50 0z"/>
<path d="M9120 6620 c0 -5 18 -10 40 -10 22 0 40 5 40 10 0 6 -18 10 -40 10
-22 0 -40 -4 -40 -10z"/>
<path d="M8640 6611 c0 -6 4 -12 9 -15 13 -8 42 4 35 15 -7 12 -44 12 -44 0z"/>
<path d="M9218 6593 c12 -2 32 -2 45 0 12 2 2 4 -23 4 -25 0 -35 -2 -22 -4z"/>
<path d="M9145 6580 c3 -5 8 -10 11 -10 2 0 4 5 4 10 0 6 -5 10 -11 10 -5 0
-7 -4 -4 -10z"/>
<path d="M9027 6552 c-4 -5 -9 -29 -13 -53 -6 -41 -5 -43 10 -24 14 18 15 18
16 3 0 -10 4 -18 9 -18 20 0 20 19 2 60 -10 23 -21 38 -24 32z"/>
<path d="M8953 6470 c0 -25 2 -35 4 -22 2 12 2 32 0 45 -2 12 -4 2 -4 -23z"/>
<path d="M8920 6393 c0 -49 14 -73 32 -55 9 9 9 12 0 12 -7 0 -12 16 -12 40 0
22 -4 40 -10 40 -5 0 -10 -17 -10 -37z"/>
<path d="M9091 6414 c0 -11 3 -14 6 -6 3 7 2 16 -1 19 -3 4 -6 -2 -5 -13z"/>
<path d="M9037 6360 c-8 -29 -8 -29 23 -19 15 4 18 7 8 8 -9 1 -18 9 -20 19
-3 13 -5 11 -11 -8z"/>
<path d="M9325 6350 c3 -5 8 -10 11 -10 2 0 4 5 4 10 0 6 -5 10 -11 10 -5 0
-7 -4 -4 -10z"/>
<path d="M8975 6340 c4 -6 11 -8 16 -5 14 9 11 15 -7 15 -8 0 -12 -5 -9 -10z"/>
<path d="M9150 6338 c-23 -10 -23 -11 -5 -16 11 -2 24 -9 28 -16 5 -6 6 -3 3
8 -4 11 -1 23 6 28 18 11 -2 9 -32 -4z"/>
<path d="M9013 6313 c-20 -8 -15 -23 7 -23 11 0 20 7 20 15 0 15 -6 17 -27 8z"/>
<path d="M8520 6296 c0 -2 7 -9 15 -16 13 -11 14 -10 9 4 -5 14 -24 23 -24 12z"/>
<path d="M8849 6282 c-21 -2 -26 -7 -22 -23 6 -22 23 -26 23 -4 0 8 6 15 14
15 9 0 12 -7 9 -19 -3 -10 0 -22 6 -25 7 -5 8 -1 4 9 -3 10 -1 20 4 24 18 10
-9 26 -38 23z"/>
<path d="M8920 6250 c0 -5 5 -10 10 -10 6 0 10 5 10 10 0 6 -4 10 -10 10 -5 0
-10 -4 -10 -10z"/>
<path d="M8730 6240 c-8 -5 -10 -10 -5 -10 6 0 17 5 25 10 8 5 11 10 5 10 -5
0 -17 -5 -25 -10z"/>
<path d="M8766 6225 c-3 -8 -1 -15 4 -15 6 0 10 7 10 15 0 8 -2 15 -4 15 -2 0
-6 -7 -10 -15z"/>
<path d="M8821 6204 c0 -11 3 -14 6 -6 3 7 2 16 -1 19 -3 4 -6 -2 -5 -13z"/>
<path d="M8517 5819 c6 -23 9 -24 16 -5 3 8 0 17 -7 19 -10 4 -12 -1 -9 -14z"/>
<path d="M8740 5730 c0 -5 5 -10 10 -10 6 0 10 5 10 10 0 6 -4 10 -10 10 -5 0
-10 -4 -10 -10z"/>
<path d="M8506 5681 c-3 -5 1 -12 10 -15 20 -8 29 -1 19 13 -8 13 -22 14 -29
2z"/>
<path d="M8480 5591 c0 -12 5 -21 10 -21 6 0 10 6 10 14 0 8 -4 18 -10 21 -5
3 -10 -3 -10 -14z"/>
<path d="M8492 5491 c-9 -25 -8 -29 4 -24 8 3 14 16 14 29 0 32 -6 30 -18 -5z"/>
<path d="M8456 5491 c-4 -5 -2 -12 3 -15 5 -4 12 -2 15 3 4 5 2 12 -3 15 -5 4
-12 2 -15 -3z"/>
<path d="M8711 5384 c0 -11 3 -14 6 -6 3 7 2 16 -1 19 -3 4 -6 -2 -5 -13z"/>
<path d="M8547 5338 c-23 -24 -7 -49 26 -40 22 6 22 6 -2 12 l-25 6 24 22 c15
14 19 22 9 21 -8 0 -22 -10 -32 -21z"/>
<path d="M8995 4952 c-2 -7 -10 -12 -17 -11 -7 1 -29 1 -48 0 -27 -1 -31 -4
-20 -11 12 -8 9 -10 -12 -10 -16 0 -28 -6 -28 -13 0 -7 -9 -18 -21 -25 -14 -9
-18 -19 -14 -32 5 -16 2 -20 -14 -20 -24 0 -25 -3 -12 -47 7 -22 6 -33 -2 -36
-7 -3 8 -3 33 -1 37 3 40 2 20 -6 -19 -7 -11 -9 38 -7 34 1 62 -1 62 -4 0 -4
58 -7 128 -8 170 -1 376 -37 464 -82 10 -5 23 -9 28 -9 6 0 30 -9 52 -20 23
-11 50 -20 59 -20 10 0 19 -4 21 -8 2 -5 44 -35 93 -68 218 -143 352 -305 459
-554 57 -133 88 -371 67 -516 -15 -107 -63 -268 -102 -347 -16 -32 -29 -64
-29 -71 0 -8 -7 -17 -15 -20 -9 -3 -21 -18 -28 -34 -7 -15 -18 -34 -24 -42 -7
-8 -27 -32 -45 -53 -35 -41 -42 -65 -26 -84 15 -19 -2 -16 -24 4 -17 15 -18
15 -18 0 0 -10 -4 -16 -9 -15 -5 2 -28 -17 -50 -40 -23 -24 -41 -40 -41 -36 0
4 -15 -6 -32 -22 -18 -17 -45 -36 -60 -44 -16 -7 -28 -19 -28 -27 0 -7 -4 -14
-10 -14 -5 -1 -15 -2 -22 -3 -11 -1 -25 -26 -14 -26 13 0 56 24 56 32 0 4 7 8
16 8 8 0 13 4 10 9 -4 5 3 7 13 4 10 -3 30 1 42 8 27 15 43 14 78 -4 19 -9 25
-9 28 1 3 6 9 10 14 7 5 -4 0 -16 -11 -28 -19 -20 -20 -22 -3 -29 29 -11 36
-9 29 7 -3 9 0 24 6 35 9 14 9 22 -1 34 -8 9 -9 16 -3 16 5 0 12 9 15 20 9 33
30 24 24 -10 -4 -16 -2 -32 2 -35 12 -7 22 21 15 39 -3 8 -1 23 6 33 9 16 10
15 5 -7 -5 -22 -5 -23 5 -7 8 13 19 17 34 13 15 -4 28 1 39 14 14 17 14 20 2
20 -27 0 -15 16 25 34 23 10 47 30 55 47 9 16 21 29 27 29 6 0 8 3 5 6 -10 10
12 44 27 44 8 0 13 8 12 18 -2 9 0 19 3 22 14 12 81 150 81 168 0 11 6 23 13
25 7 3 5 6 -5 6 -17 1 -27 21 -10 21 4 0 18 16 31 35 17 25 22 45 19 74 -3 34
-1 38 13 31 13 -8 15 -5 11 16 -2 14 -7 22 -10 20 -3 -3 -11 -1 -18 5 -15 13
-7 39 12 39 19 0 18 26 -1 34 -19 7 -20 46 -1 46 28 0 30 93 2 112 -20 13 5
22 26 9 18 -11 20 -11 15 3 -13 34 -20 116 -9 116 6 0 13 -6 15 -12 4 -10 8
-10 16 1 13 20 20 -9 30 -125 6 -63 9 -76 11 -44 5 87 3 196 -4 250 -16 131
-99 392 -138 434 -10 11 -21 29 -24 40 -16 48 -198 284 -215 279 -5 -2 -9 4
-9 12 0 8 -7 15 -16 15 -9 0 -18 9 -21 20 -3 11 -9 17 -15 14 -11 -7 -40 15
-33 26 3 5 -4 6 -15 3 -12 -3 -20 0 -20 6 0 7 5 9 10 6 6 -3 10 -3 10 2 -1 10
-85 73 -98 73 -4 0 -17 8 -28 18 -10 9 -38 26 -61 37 -24 11 -43 23 -43 26 0
4 -28 19 -62 34 -133 59 -196 83 -235 90 -22 4 -33 12 -33 23 0 13 -2 14 -9 4
-6 -11 -24 -9 -91 7 -100 25 -160 27 -160 6 0 -8 -4 -15 -10 -15 -5 0 -10 7
-10 15 0 13 -18 15 -120 13 -87 -2 -121 -6 -125 -16z m362 -14 c-3 -8 -6 -5
-6 6 -1 11 2 17 5 13 3 -3 4 -12 1 -19z m-427 -118 c0 -5 -4 -10 -10 -10 -5 0
-10 5 -10 10 0 6 5 10 10 10 6 0 10 -4 10 -10z m-25 -20 c3 -5 1 -10 -4 -10
-6 0 -11 5 -11 10 0 6 2 10 4 10 3 0 8 -4 11 -10z m1530 -769 c-3 -5 -1 -12 5
-16 5 -3 10 -1 10 4 0 24 18 8 40 -36 18 -36 24 -65 24 -114 0 -75 -15 -104
-48 -95 -13 3 -29 -2 -42 -15 l-22 -20 -11 32 c-13 37 -14 64 -1 34 l9 -20 -1
20 c0 28 -16 75 -17 53 -2 -29 -20 -20 -20 10 0 15 -2 44 -4 65 -3 20 -1 37 4
37 5 0 9 -4 9 -10 0 -16 37 -11 44 6 10 26 7 54 -6 54 -9 0 -8 4 2 10 19 12
33 13 25 1z m-45 -702 c0 -5 -4 -9 -10 -9 -5 0 -10 7 -10 16 0 8 5 12 10 9 6
-3 10 -10 10 -16z m37 -15 c-3 -3 -12 -4 -19 -1 -8 3 -5 6 6 6 11 1 17 -2 13
-5z m13 -94 c0 -5 -4 -10 -10 -10 -5 0 -10 5 -10 10 0 6 5 10 10 10 6 0 10 -4
10 -10z m-40 -102 c0 -16 -3 -19 -11 -11 -6 6 -8 16 -5 22 11 17 16 13 16 -11z
m-400 -398 c0 -5 -5 -10 -11 -10 -5 0 -7 5 -4 10 3 6 8 10 11 10 2 0 4 -4 4
-10z"/>
<path d="M10384 3929 c-3 -6 -1 -16 5 -22 8 -8 11 -5 11 11 0 24 -5 28 -16 11z"/>
<path d="M10416 3844 c-8 -22 -7 -52 2 -58 5 -3 9 13 10 35 3 41 -2 50 -12 23z"/>
<path d="M8778 4723 c7 -3 16 -2 19 1 4 3 -2 6 -13 5 -11 0 -14 -3 -6 -6z"/>
<path d="M11665 4525 c4 -16 9 -46 10 -65 2 -19 8 -48 14 -63 6 -16 9 -33 5
-38 -3 -5 2 -12 10 -15 9 -3 16 -12 16 -20 0 -9 8 -13 23 -10 12 2 32 -3 44
-11 12 -8 28 -13 35 -10 7 2 20 -1 28 -9 8 -7 29 -15 45 -19 25 -5 22 -2 -14
17 -69 36 -148 121 -188 202 -19 39 -32 58 -28 41z m56 -122 c13 -16 12 -17
-3 -4 -10 7 -18 15 -18 17 0 8 8 3 21 -13z m80 -90 c13 -16 12 -17 -3 -4 -10
7 -18 15 -18 17 0 8 8 3 21 -13z"/>
<path d="M14836 4515 c-18 -42 -21 -64 -7 -49 11 12 32 76 27 82 -3 2 -12 -13
-20 -33z"/>
<path d="M9024 4521 c-17 -11 -34 -31 -38 -45 -7 -28 9 -70 23 -61 5 3 27 -2
50 -10 74 -26 125 20 93 84 -25 52 -75 64 -128 32z"/>
<path d="M9338 4504 c-15 -8 -31 -26 -34 -41 -8 -29 7 -60 27 -55 7 2 18 -3
24 -10 20 -26 78 -28 105 -3 46 42 4 125 -62 125 -18 -1 -45 -7 -60 -16z"/>
<path d="M8634 4478 l-19 -23 23 19 c21 18 27 26 19 26 -2 0 -12 -10 -23 -22z"/>
<path d="M8690 4472 c-24 -12 -34 -23 -32 -36 2 -11 -1 -15 -7 -11 -13 8 -14
-34 -2 -54 8 -12 12 -12 24 -2 13 10 17 9 24 -3 5 -9 17 -17 28 -19 11 -2 28
-7 38 -12 26 -11 67 30 67 68 0 35 -48 87 -82 87 -13 0 -39 -8 -58 -18z"/>
<path d="M9619 4379 c-15 -6 -30 -18 -33 -27 -3 -9 -9 -24 -12 -32 -5 -12 -4
-13 7 -2 21 20 34 14 14 -8 -14 -16 -15 -23 -6 -34 7 -8 19 -12 27 -9 8 3 14
1 14 -5 0 -15 67 -24 89 -12 46 24 38 100 -14 124 -37 18 -49 19 -86 5z"/>
<path d="M14750 4365 c-7 -9 -11 -18 -8 -20 3 -3 11 1 18 10 7 9 11 18 8 20
-3 3 -11 -1 -18 -10z"/>
<path d="M8470 4340 c8 -5 11 -12 7 -16 -3 -4 -14 -1 -23 7 -15 12 -17 12 -13
0 3 -8 -7 -26 -23 -40 -27 -26 -42 -69 -30 -88 4 -6 30 -14 57 -18 28 -4 55
-11 61 -16 17 -14 74 43 74 74 0 28 -52 87 -76 87 -8 0 -14 5 -14 10 0 6 -8
10 -17 10 -15 0 -16 -2 -3 -10z"/>
<path d="M8399 4323 c-13 -17 -13 -17 6 -3 11 8 22 16 24 17 2 2 0 3 -6 3 -6
0 -17 -8 -24 -17z"/>
<path d="M8360 4295 c-7 -9 -8 -15 -2 -15 5 0 12 7 16 15 3 8 4 15 2 15 -2 0
-9 -7 -16 -15z"/>
<path d="M9063 4272 c-12 -2 -34 -17 -48 -33 -57 -69 -6 -148 83 -128 50 11
75 37 69 74 -8 46 -13 64 -19 70 -10 10 -63 21 -85 17z"/>
<path d="M14624 4270 c-5 -5 -46 -19 -89 -31 -80 -20 -86 -21 -1105 -14 -564
4 -1038 8 -1055 9 -16 1 -35 -2 -42 -7 -6 -4 -14 -3 -18 3 -4 6 -55 10 -132
10 -70 0 -124 -2 -122 -4 16 -16 247 -22 1309 -33 970 -10 1061 -9 1135 6 63
14 145 50 145 63 0 11 -14 10 -26 -2z"/>
<path d="M8340 4259 c0 -5 5 -7 10 -4 6 3 10 8 10 11 0 2 -4 4 -10 4 -5 0 -10
-5 -10 -11z"/>
<path d="M8590 4226 c0 -21 -17 -40 -59 -66 -12 -7 -12 -11 2 -24 20 -21 33
-21 16 0 -11 13 -11 17 1 24 8 5 23 15 32 22 21 16 35 68 19 68 -6 0 -11 -11
-11 -24z"/>
<path d="M8751 4204 c0 -11 3 -14 6 -6 3 7 2 16 -1 19 -3 4 -6 -2 -5 -13z"/>
<path d="M8313 4193 c-7 -2 -13 -11 -13 -19 0 -8 -8 -14 -19 -14 -18 0 -44
-20 -116 -85 -31 -29 -52 -90 -33 -101 4 -3 8 10 8 28 1 36 20 64 62 92 33 22
51 2 18 -21 -12 -9 -29 -31 -37 -51 -17 -42 -9 -53 55 -71 46 -13 54 -26 22
-36 -12 -4 -20 -14 -19 -23 3 -36 -2 -52 -16 -52 -20 0 -66 41 -59 52 3 5 -8
24 -25 44 -17 19 -31 28 -31 21 0 -8 -9 -22 -21 -33 -11 -10 -18 -26 -16 -36
3 -10 2 -16 -2 -13 -9 5 -29 -57 -30 -90 -1 -42 -13 -95 -21 -90 -7 4 -13 -34
-25 -167 -2 -23 2 -42 11 -49 10 -8 11 -16 3 -31 -7 -13 -7 -23 -2 -27 5 -3
10 -24 10 -46 0 -22 2 -47 5 -55 11 -33 20 -56 29 -72 5 -10 9 -27 9 -38 0
-10 8 -34 19 -53 10 -18 22 -48 26 -66 4 -18 13 -35 21 -38 8 -3 14 -11 14
-18 0 -20 21 -30 31 -14 5 8 9 9 9 4 0 -6 -5 -16 -12 -23 -8 -8 -8 -12 -1 -12
6 0 14 -11 17 -25 4 -15 11 -22 20 -19 10 4 16 -3 18 -18 2 -17 11 -24 31 -26
15 -2 27 -8 27 -13 0 -6 -4 -7 -10 -4 -5 3 -10 1 -10 -4 0 -6 6 -11 14 -11 7
0 17 -10 20 -22 6 -21 8 -21 19 -7 13 17 31 7 33 -18 2 -26 4 -29 24 -30 21
-2 36 -12 77 -53 l26 -25 -7 28 c-5 21 -3 27 10 27 13 0 16 -7 11 -35 -5 -33
6 -49 16 -22 3 7 6 5 6 -5 2 -31 20 -19 24 15 l4 32 1 -37 c2 -43 13 -52 59
-50 19 1 31 -2 29 -7 -3 -5 2 -11 13 -14 27 -7 38 21 35 87 -3 56 7 96 25 96
4 0 6 -22 3 -48 -4 -44 -1 -52 28 -85 18 -21 39 -37 48 -37 12 0 12 -4 -4 -21
-19 -22 -19 -22 5 -14 16 5 21 4 17 -4 -4 -6 -1 -11 8 -11 8 0 16 6 19 13 3 9
8 8 22 -3 17 -14 18 -13 12 2 -4 12 -2 15 9 11 7 -3 14 0 14 7 0 6 5 8 10 5 6
-3 10 -14 10 -25 0 -10 7 -20 15 -24 8 -3 15 -1 15 4 0 6 15 10 33 10 31 0 34
3 34 30 0 17 -4 30 -9 30 -4 0 -8 15 -9 33 l0 32 -15 -37 c-15 -34 -17 -36
-40 -26 -14 6 -22 16 -19 22 3 6 8 19 11 29 4 12 13 17 25 14 11 -3 22 -1 25
5 3 5 12 7 20 4 8 -3 11 0 7 10 -9 23 13 16 25 -8 10 -22 11 -22 11 -3 1 12 5
25 10 30 5 6 5 19 1 30 -7 17 -9 17 -9 3 -1 -10 -6 -18 -11 -18 -6 0 -14 8
-17 18 -4 9 -12 23 -19 30 -10 10 -12 7 -11 -12 1 -14 -2 -25 -8 -25 -5 0 -9
7 -9 15 1 8 -2 14 -7 14 -5 0 -6 7 -2 16 5 13 2 15 -15 10 -15 -5 -22 -2 -27
13 -7 23 -32 35 -41 19 -4 -5 5 -20 19 -32 48 -40 43 -117 -10 -163 -34 -30
-42 -29 -14 1 42 45 34 137 -15 164 -15 8 -15 11 1 35 15 24 15 27 0 50 -10
16 -22 23 -34 20 -11 -3 -21 2 -24 11 -4 11 -1 16 11 16 13 0 14 2 3 9 -7 5
-23 6 -35 3 -19 -5 -19 -4 -7 11 8 10 9 17 3 17 -6 0 -14 -5 -18 -11 -7 -12
-44 43 -44 66 0 29 -24 64 -51 76 -16 6 -29 16 -29 21 0 6 -11 7 -25 4 -15 -4
-25 -2 -25 4 0 6 -4 8 -10 5 -5 -3 -10 -1 -10 4 0 6 -5 11 -11 11 -5 0 -7 -4
-4 -10 3 -5 1 -10 -5 -10 -6 0 -8 10 -4 25 4 16 2 25 -6 25 -6 0 -8 -6 -4 -12
4 -7 3 -9 -1 -5 -13 11 -5 97 11 132 l15 30 -19 -22 c-17 -20 -21 -21 -26 -6
-4 9 -4 18 -1 21 3 3 5 -1 5 -9 0 -12 2 -12 9 0 9 15 4 41 -7 39 -19 -2 -23 4
-12 17 10 12 10 15 0 15 -7 0 -21 11 -31 25 -13 15 -26 22 -37 19 -15 -5 -15
-4 -2 6 11 8 12 13 3 16 -7 3 -9 12 -6 21 4 11 2 14 -5 9 -19 -11 6 42 40 86
31 41 35 53 15 45 -11 -4 -13 5 -9 43 6 60 -5 111 -19 89 -10 -16 -12 1 -3 25
8 22 24 20 24 -3 0 -10 8 -25 18 -32 14 -11 15 -11 5 1 -7 8 -13 28 -13 44 0
34 33 96 50 96 6 0 9 4 6 9 -3 5 2 8 12 7 12 -1 18 8 20 29 l3 30 -18 -22
c-13 -16 -24 -21 -40 -17 -29 8 -29 23 1 52 26 24 52 29 59 10 4 -10 6 -10 6
0 1 7 -6 15 -14 18 -8 4 -15 13 -15 21 0 18 -42 93 -53 93 -5 0 -5 -4 -2 -10
4 -6 -5 -10 -20 -10 -14 0 -28 -7 -31 -15 -4 -8 -11 -12 -16 -9 -6 4 -5 10 3
15 18 11 6 21 -15 13 -9 -4 -15 -13 -12 -20 3 -8 0 -11 -8 -8 -7 3 -18 -2 -25
-10 -10 -12 -9 -21 4 -46 9 -18 14 -34 11 -38 -3 -3 -6 -1 -6 4 0 6 -9 20 -21
33 -12 13 -18 29 -15 38 5 13 4 14 -8 4 -13 -11 -16 -8 -22 15 -5 18 -3 29 4
32 7 2 12 12 12 22 0 10 6 21 13 23 6 3 8 5 2 5 -5 0 -16 -2 -22 -5z m209
-117 c14 -25 -1 -35 -18 -12 -14 20 -14 20 -15 0 -1 -16 -2 -17 -6 -1 -2 9
-10 17 -16 17 -8 0 -7 3 2 9 20 13 42 7 53 -13z m-142 -76 c0 -5 -5 -10 -11
-10 -5 0 -7 5 -4 10 3 6 8 10 11 10 2 0 4 -4 4 -10z m-26 -45 c-4 -8 -11 -15
-16 -15 -6 0 -5 6 2 15 7 8 14 15 16 15 2 0 1 -7 -2 -15z m148 -12 c-6 -2 -10
-8 -8 -11 2 -4 -2 -13 -10 -20 -17 -15 -18 -8 -4 19 6 10 16 19 23 18 9 0 9
-2 -1 -6z m-132 -23 c0 -5 -2 -10 -4 -10 -3 0 -8 5 -11 10 -3 6 -1 10 4 10 6
0 11 -4 11 -10z m70 -10 c0 -5 -4 -10 -10 -10 -5 0 -10 5 -10 10 0 6 5 10 10
10 6 0 10 -4 10 -10z m-20 -69 c0 -20 -13 -4 -28 34 l-13 30 21 -25 c11 -14
20 -32 20 -39z m40 27 c0 -18 -2 -20 -9 -8 -6 8 -7 18 -5 22 9 14 14 9 14 -14z
m-330 -68 c0 -6 -7 -25 -16 -41 -8 -17 -14 -42 -12 -57 2 -21 8 -26 26 -25 13
2 22 -3 22 -12 0 -7 9 -20 21 -28 15 -11 17 -16 7 -20 -18 -6 -78 19 -94 41
-21 27 -17 82 9 119 22 33 37 42 37 23z m-60 -149 c0 -3 -7 4 -15 15 -8 10
-14 30 -14 44 0 20 3 17 14 -15 8 -22 15 -42 15 -44z m187 64 c8 -9 13 -18 11
-21 -9 -9 -59 16 -53 26 9 14 24 12 42 -5z m-59 -146 c-2 -6 -8 -10 -13 -10
-5 0 -11 4 -13 10 -2 6 4 11 13 11 9 0 15 -5 13 -11z m-72 -115 c-14 -37 -18
-66 -12 -90 7 -25 8 -26 26 -9 19 17 19 17 10 -14 -9 -33 -13 -30 55 -44 14
-3 12 -5 -8 -6 -46 -2 -92 23 -107 58 -13 33 -8 84 11 108 16 18 32 16 25 -3z
m371 -156 c-3 -7 -5 -2 -5 12 0 14 2 19 5 13 2 -7 2 -19 0 -25z m0 -40 c-3 -8
-6 -5 -6 6 -1 11 2 17 5 13 3 -3 4 -12 1 -19z m-280 -113 c-12 -42 3 -88 27
-79 8 3 24 -3 36 -14 25 -23 12 -31 -35 -23 -53 10 -79 95 -43 138 19 24 26
13 15 -22z m203 -179 c-25 -65 2 -126 63 -146 31 -9 30 -10 -11 -6 -44 4 -64
20 -82 64 -15 36 -12 61 11 94 25 34 34 32 19 -6z m193 -56 c-3 -12 -8 -19
-11 -16 -5 6 5 36 12 36 2 0 2 -9 -1 -20z m-13 -40 c0 -5 -5 -10 -11 -10 -5 0
-7 5 -4 10 3 6 8 10 11 10 2 0 4 -4 4 -10z m337 -72 c-3 -8 -6 -5 -6 6 -1 11
2 17 5 13 3 -3 4 -12 1 -19z m-113 -143 c-4 -8 -11 -15 -16 -15 -6 0 -5 6 2
15 7 8 14 15 16 15 2 0 1 -7 -2 -15z"/>
<path d="M8685 4179 c3 -3 -7 -17 -20 -29 -14 -13 -25 -31 -25 -39 1 -12 3
-11 11 4 6 11 24 31 40 45 24 22 25 26 9 26 -10 0 -17 -3 -15 -7z"/>
<path d="M9340 4177 c-55 -28 -64 -93 -18 -132 27 -23 39 -26 72 -22 47 7 76
36 76 77 0 42 -9 59 -41 75 -34 18 -56 19 -89 2z"/>
<path d="M8744 4165 c-95 -40 -80 -165 20 -165 44 0 96 44 96 82 -1 64 -60
107 -116 83z"/>
<path d="M9850 4138 c-14 -8 -25 -18 -25 -23 0 -6 -4 -16 -9 -23 -16 -25 3
-61 40 -77 77 -32 134 -10 134 52 0 58 -83 100 -140 71z"/>
<path d="M9535 3994 c-45 -49 -35 -106 24 -130 46 -19 95 -4 116 37 14 25 14
33 1 63 -26 61 -98 77 -141 30z"/>
<path d="M9054 3976 c-38 -17 -46 -28 -51 -75 l-4 -35 25 24 c32 29 40 22 28
-24 -13 -46 -1 -53 27 -16 32 44 76 36 51 -10 -15 -27 2 -25 29 4 40 43 28
110 -24 132 -41 17 -42 17 -81 0z"/>
<path d="M7551 3964 c0 -11 3 -14 6 -6 3 7 2 16 -1 19 -3 4 -6 -2 -5 -13z"/>
<path d="M8542 3923 c-34 -26 -57 -82 -47 -113 8 -26 55 -50 95 -50 41 0 80
39 80 80 0 45 -15 67 -59 88 l-39 19 -30 -24z"/>
<path d="M7537 3903 c-4 -3 -7 -20 -6 -37 l1 -31 8 35 c9 36 8 45 -3 33z"/>
<path d="M9965 3870 c-4 -6 -10 -8 -15 -5 -13 8 -23 -13 -26 -56 -3 -32 1 -41
27 -63 40 -34 91 -35 124 -1 14 13 25 31 25 40 0 25 -28 73 -49 85 -25 13 -78
13 -86 0z"/>
<path d="M7556 3849 c-33 -146 -36 -411 -6 -469 4 -8 11 -45 15 -82 4 -38 11
-68 16 -68 5 0 9 -7 9 -15 0 -8 -3 -15 -7 -15 -11 0 -43 81 -43 108 0 12 -3
22 -7 22 -9 0 -10 4 -22 160 -5 63 -5 120 -1 125 4 6 2 15 -4 21 -10 9 -13 1
-15 -38 -1 -28 -5 -68 -10 -89 -5 -22 -6 -39 -2 -39 3 0 7 -64 7 -142 1 -79 3
-164 5 -191 3 -38 1 -47 -12 -47 -33 0 -41 -26 -34 -102 l7 -72 -25 30 -25 29
-10 -25 c-13 -36 -33 -209 -29 -251 2 -20 7 -41 11 -48 4 -7 3 -18 -4 -25 -8
-11 -8 -15 2 -19 9 -4 10 -8 2 -14 -16 -11 -30 -78 -15 -69 6 4 11 2 11 -3 0
-6 -4 -11 -10 -11 -5 0 -7 -13 -4 -29 3 -16 1 -31 -4 -35 -10 -6 -60 112 -82
194 -6 23 -14 40 -16 37 -8 -8 24 -123 63 -226 55 -149 135 -290 236 -421 72
-94 75 -98 38 -65 -22 19 -32 24 -28 13 4 -12 2 -15 -9 -11 -17 6 -18 20 -2
25 13 5 -29 66 -46 67 -5 1 1 -10 14 -24 16 -18 20 -28 13 -37 -6 -7 -14 -24
-18 -38 -7 -23 -6 -24 7 -7 13 18 15 18 29 1 11 -13 11 -18 2 -21 -15 -5 -17
-32 -3 -53 9 -13 13 -11 29 9 15 20 19 21 24 8 3 -9 2 -19 -3 -22 -13 -8 -13
-52 1 -77 8 -15 17 -18 36 -13 32 8 51 -9 45 -40 -5 -30 -2 -30 47 -6 l38 20
-2 -22 c-4 -33 37 -51 59 -26 9 11 11 19 6 19 -13 0 -212 192 -205 198 3 3 24
-15 48 -39 24 -24 76 -74 115 -111 40 -37 68 -69 62 -73 -5 -3 -10 -11 -10
-18 0 -6 6 -3 13 7 12 16 19 13 92 -36 236 -158 413 -235 695 -303 85 -21 161
-39 168 -41 7 -2 12 -20 12 -41 0 -57 18 -111 43 -128 13 -9 43 -15 78 -15 37
0 59 -4 61 -12 3 -7 -30 -45 -72 -85 -62 -58 -80 -82 -93 -124 -9 -28 -17 -60
-17 -70 0 -26 -12 -24 -44 10 -16 16 -41 35 -57 41 -25 11 -36 9 -81 -13 -61
-30 -148 -110 -148 -135 0 -9 9 -23 20 -30 24 -15 26 -32 4 -32 -9 0 -14 -6
-11 -12 3 -7 24 -60 47 -118 56 -138 96 -256 110 -324 10 -48 15 -56 42 -65
17 -6 41 -11 54 -11 13 0 26 -4 29 -10 4 -6 -7 -10 -25 -10 -18 0 -29 -4 -25
-10 20 -33 -102 10 -195 68 -54 34 -180 155 -180 173 0 5 42 -23 93 -61 50
-39 95 -70 99 -70 5 0 24 -9 44 -21 20 -11 38 -18 40 -16 6 6 -35 114 -62 163
-41 73 -125 163 -176 190 -34 18 -88 10 -88 -12 0 -9 5 -24 11 -36 6 -11 8
-22 5 -25 -8 -8 -46 78 -46 105 0 17 6 22 28 23 l27 1 -30 9 c-55 16 -168 -61
-212 -145 -19 -36 -12 -99 17 -156 22 -44 25 -54 10 -45 -15 9 -112 8 -119 -2
-3 -5 -18 -16 -32 -25 -14 -9 -31 -31 -37 -50 -10 -32 -11 -31 -8 19 4 64 16
79 69 92 l42 9 -38 1 c-77 2 -130 -35 -191 -135 -27 -44 -39 -77 -43 -118 l-6
-56 139 0 138 0 -32 33 c-55 57 -15 54 76 -5 l43 -28 292 0 c161 0 297 4 302
8 15 10 60 74 68 94 3 10 13 18 22 18 52 0 105 60 105 120 0 16 2 30 5 30 2 0
26 -14 52 -30 48 -30 83 -39 83 -19 0 6 8 8 18 5 11 -4 23 2 32 15 8 11 23 30
32 41 9 10 19 36 23 57 6 35 3 41 -41 87 -25 27 -50 48 -56 46 -5 -1 -16 4
-24 13 -9 8 -24 15 -34 15 -10 0 -21 7 -24 16 -3 8 -10 13 -14 10 -10 -6 -94
70 -109 99 -13 25 -5 85 12 85 7 0 24 -9 39 -21 18 -14 24 -16 20 -5 -3 8 -12
17 -20 20 -8 3 -14 11 -14 18 0 6 13 -1 30 -17 16 -15 27 -33 23 -38 -3 -6 -2
-7 4 -4 10 7 138 -121 206 -206 35 -43 67 -61 67 -37 0 14 -71 174 -82 185 -7
7 -8 2 -4 -15 6 -22 5 -21 -10 5 -9 17 -23 33 -30 38 -7 4 -18 24 -24 45 -13
47 -13 61 1 42 11 -15 9 10 -5 115 l-6 40 10 -35 c5 -19 20 -71 32 -115 20
-74 26 -84 85 -141 85 -82 172 -128 239 -127 81 1 115 31 120 108 1 17 9 50
17 75 9 24 15 46 13 48 -3 3 -31 7 -73 11 -6 0 -45 31 -86 69 -41 37 -98 88
-127 114 -45 40 -51 49 -39 60 41 41 89 59 167 62 17 0 32 4 32 8 0 6 -91 68
-150 100 -30 17 -30 18 -13 38 13 15 18 38 18 83 l0 62 40 12 c22 7 115 31
208 53 187 46 312 90 432 154 118 63 200 116 198 126 -2 5 3 7 11 4 8 -3 20 4
28 15 8 12 17 19 19 17 2 -3 20 9 39 25 32 28 32 29 5 12 -16 -9 -33 -22 -37
-28 -4 -5 -8 -6 -8 -1 0 5 -6 3 -14 -3 -7 -6 -33 -22 -57 -35 -24 -12 -79 -42
-123 -66 -136 -74 -286 -116 -286 -80 0 9 31 24 44 21 5 -1 4 5 -4 13 -10 13
-10 16 0 16 10 0 10 3 0 15 -10 12 -10 18 0 30 15 18 36 19 44 3 3 -7 5 -4 4
7 -2 28 12 55 27 55 7 0 18 7 25 15 7 8 16 12 21 9 5 -3 6 2 3 10 -4 9 9 30
34 54 22 21 45 56 52 78 7 21 16 41 19 44 7 5 31 61 58 135 8 22 19 66 24 99
6 32 17 65 25 73 10 11 12 19 4 28 -6 7 -8 20 -4 29 4 12 0 16 -15 16 -28 0
-27 14 4 30 17 9 22 17 15 25 -7 8 16 37 75 97 47 46 85 91 85 98 0 9 -8 6
-23 -8 -13 -12 -30 -22 -38 -22 -8 0 -36 -13 -62 -30 -26 -16 -52 -30 -56 -30
-5 0 -26 -9 -48 -19 -59 -30 -200 -87 -288 -116 -44 -15 -89 -31 -100 -35 -11
-5 -33 -11 -50 -14 -16 -4 -41 -9 -55 -12 -122 -27 -183 -36 -309 -44 -173
-12 -245 -7 -411 27 -154 31 -140 28 -173 41 -16 7 -34 12 -40 12 -26 0 -87
27 -80 35 5 4 3 5 -3 2 -7 -4 -25 0 -40 8 -16 8 -34 15 -40 15 -6 0 -33 12
-60 26 -140 75 -164 88 -164 96 0 4 -4 8 -10 8 -9 0 -94 57 -133 90 -10 8 -19
13 -20 11 -3 -7 -168 159 -212 214 -21 28 -42 52 -46 55 -4 3 -24 34 -45 69
-22 35 -44 71 -49 80 -23 36 -39 66 -40 73 0 3 -3 10 -7 14 -5 4 -8 14 -8 22
0 8 -7 20 -15 26 -8 6 -16 24 -17 40 -2 15 -8 31 -15 33 -7 3 -13 16 -13 29 0
13 -3 24 -8 24 -11 0 -33 125 -26 147 4 13 3 15 -4 5 -7 -11 -11 -7 -17 15
-15 59 -22 261 -13 366 8 103 6 149 -6 96z m-182 -1459 c-6 -5 -24 21 -24 34
0 6 6 1 14 -10 8 -10 12 -21 10 -24z m46 -95 c0 -5 -9 5 -20 23 -11 18 -20 38
-20 45 1 14 39 -52 40 -68z m2700 -1 c0 -8 -5 -12 -10 -9 -6 4 -8 11 -5 16 9
14 15 11 15 -7z m-2485 -404 c18 -20 18 -21 0 -14 -14 6 -16 4 -10 -7 4 -8 4
-11 0 -6 -9 7 -18 47 -11 47 1 0 11 -9 21 -20z m10 -80 c0 -8 -8 -16 -17 -18
-13 -2 -18 3 -18 18 0 15 5 20 18 18 9 -2 17 -10 17 -18z m66 3 c13 -16 12
-17 -3 -4 -10 7 -18 15 -18 17 0 8 8 3 21 -13z m-20 -10 c13 -16 12 -17 -3 -4
-10 7 -18 15 -18 17 0 8 8 3 21 -13z m114 -81 c-3 -3 -11 0 -18 7 -9 10 -8 11
6 5 10 -3 15 -9 12 -12z m1975 -162 c0 -5 -4 -10 -10 -10 -5 0 -10 5 -10 10 0
6 5 10 10 10 6 0 10 -4 10 -10z m-534 -338 c-14 -15 -15 -13 -3 17 8 23 13 28
15 16 2 -10 -3 -25 -12 -33z m-76 -350 c15 -12 23 -31 25 -58 4 -48 -16 -71
-38 -46 -21 25 -47 82 -47 104 0 23 31 24 60 0z m123 -81 l32 -34 -38 21 -37
21 16 -30 c9 -19 11 -28 4 -24 -14 9 -70 95 -70 108 0 14 58 -25 93 -62z"/>
<path d="M9136 835 c4 -8 11 -15 16 -15 6 0 5 6 -2 15 -7 8 -14 15 -16 15 -2
0 -1 -7 2 -15z"/>
<path d="M8824 3850 c-42 -17 -66 -65 -55 -108 1 -2 8 4 17 12 8 9 20 14 25
11 17 -11 9 -34 -13 -41 l-22 -7 23 -18 c71 -58 176 27 136 109 -19 38 -72 58
-111 42z"/>
<path d="M9310 3832 c-56 -56 -32 -128 47 -139 37 -5 46 -2 73 25 17 18 30 41
30 56 0 37 -39 76 -82 83 -32 5 -41 1 -68 -25z m59 -56 c-12 -10 -60 -16 -54
-6 3 5 18 10 32 10 15 0 24 -2 22 -4z"/>
<path d="M8020 3779 c0 -5 5 -7 10 -4 6 3 10 8 10 11 0 2 -4 4 -10 4 -5 0 -10
-5 -10 -11z"/>
<path d="M8011 3744 c0 -11 3 -14 6 -6 3 7 2 16 -1 19 -3 4 -6 -2 -5 -13z"/>
<path d="M9655 3748 c-25 -14 -38 -34 -46 -71 -10 -43 36 -87 90 -87 95 0 125
112 42 155 -35 18 -58 19 -86 3z"/>
<path d="M7490 3679 c0 -5 5 -7 10 -4 6 3 10 8 10 11 0 2 -4 4 -10 4 -5 0 -10
-5 -10 -11z"/>
<path d="M8470 3618 c-39 -42 -38 -100 2 -138 61 -56 174 22 146 102 -13 38
-44 58 -90 58 -26 0 -44 -7 -58 -22z m128 -76 c3 -10 -6 -12 -34 -10 -20 2
-39 9 -42 16 -3 10 6 12 34 10 20 -2 39 -9 42 -16z"/>
<path d="M9325 3575 c-38 -20 -55 -42 -55 -73 l0 -23 27 20 c28 23 54 21 86
-7 20 -18 23 -34 3 -26 -7 3 -16 -2 -20 -11 -3 -9 -10 -14 -14 -11 -5 3 -17
-1 -27 -8 -18 -13 -17 -14 13 -21 73 -16 122 18 122 85 0 66 -74 107 -135 75z"/>
<path d="M9975 3570 c-14 -15 -15 -20 -4 -20 9 0 10 -3 3 -8 -21 -14 -23 -51
-3 -76 23 -29 93 -47 126 -33 50 22 42 121 -13 146 -39 17 -89 14 -109 -9z"/>
<path d="M8805 3535 c-46 -45 -27 -128 32 -144 57 -16 107 16 119 75 4 24 0
37 -21 62 -35 42 -93 45 -130 7z m69 -51 c9 -3 16 -11 16 -18 0 -14 -56 -40
-70 -31 -16 10 -12 33 8 44 20 12 25 13 46 5z"/>
<path d="M9592 3483 c-11 -10 -23 -34 -26 -54 -6 -33 -3 -40 29 -68 66 -58
155 -28 155 52 0 52 -38 87 -93 87 -28 0 -52 -6 -65 -17z m106 -69 c12 -8 22
-19 22 -23 0 -12 -47 -31 -75 -31 -26 0 -61 42 -50 60 10 15 78 12 103 -6z"/>
<path d="M9067 3427 c-40 -32 -47 -85 -14 -123 35 -40 98 -41 133 -1 40 47 29
104 -26 132 -40 20 -60 19 -93 -8z"/>
<path d="M7521 3404 c0 -11 3 -14 6 -6 3 7 2 16 -1 19 -3 4 -6 -2 -5 -13z"/>
<path d="M8577 3379 c-22 -13 -47 -61 -47 -93 0 -34 46 -86 76 -86 14 0 27 -7
30 -15 4 -8 11 -15 16 -15 6 0 5 6 -2 15 -7 8 -8 15 -3 15 5 0 24 14 41 31 24
23 32 40 32 66 0 68 -84 116 -143 82z"/>
<path d="M9934 3300 c-46 -18 -68 -85 -44 -131 12 -22 71 -49 106 -49 56 0 85
85 48 139 -13 18 -73 53 -86 50 -2 0 -13 -4 -24 -9z"/>
<path d="M9420 3263 c-28 -10 -49 -35 -55 -64 -8 -37 2 -54 22 -37 14 11 15 9
9 -19 -7 -30 -6 -32 33 -44 48 -14 81 -4 106 35 45 68 -36 158 -115 129z"/>
<path d="M8817 3199 c-21 -12 -47 -61 -47 -88 0 -27 48 -79 80 -86 33 -7 87
26 101 62 29 77 -62 154 -134 112z m83 -78 c0 -5 -9 -11 -20 -14 -20 -5 -26 3
-13 16 9 10 33 8 33 -2z"/>
<path d="M9121 3153 c-24 -19 -45 -89 -30 -99 5 -3 9 -1 9 5 0 29 72 56 93 35
8 -8 -42 -62 -65 -70 -15 -4 -16 -9 -8 -19 30 -36 115 -21 140 24 45 86 -65
184 -139 124z"/>
<path d="M8727 3054 c2 -7 11 -10 19 -7 19 7 18 10 -5 16 -13 3 -18 1 -14 -9z"/>
<path d="M9681 3031 c-63 -63 -15 -171 75 -171 70 0 101 110 46 163 -35 33
-92 37 -121 8z"/>
<path d="M9454 2885 c-49 -20 -70 -97 -39 -141 16 -24 94 -49 123 -40 11 4 28
23 37 43 14 30 15 42 6 73 -6 21 -17 43 -25 49 -26 22 -71 29 -102 16z"/>
<path d="M9114 2830 c-32 -13 -54 -50 -54 -91 0 -54 8 -67 54 -90 73 -35 126
-2 126 81 0 50 -22 85 -62 99 -36 13 -36 13 -64 1z"/>
<path d="M7231 2754 c0 -11 3 -14 6 -6 3 7 2 16 -1 19 -3 4 -6 -2 -5 -13z"/>
<path d="M7241 2704 c0 -11 3 -14 6 -6 3 7 2 16 -1 19 -3 4 -6 -2 -5 -13z"/>
<path d="M8683 2687 c4 -10 7 -21 7 -23 0 -2 7 -4 15 -4 8 0 12 -6 9 -14 -3
-8 -1 -17 5 -21 7 -3 8 0 5 10 -5 11 -2 14 12 9 11 -4 17 -5 14 -3 -3 2 -20
18 -39 34 -25 22 -32 25 -28 12z"/>
<path d="M8990 2689 c0 -5 5 -7 10 -4 6 3 10 8 10 11 0 2 -4 4 -10 4 -5 0 -10
-5 -10 -11z"/>
<path d="M10355 2579 c-9 -28 1 -36 14 -10 7 12 7 22 2 26 -5 3 -13 -4 -16
-16z"/>
<path d="M9686 2558 c-9 -5 -16 -14 -16 -21 0 -8 3 -7 9 2 5 7 13 11 19 7 5
-3 15 0 21 7 13 16 -8 19 -33 5z"/>
<path d="M10325 2553 c4 -14 2 -23 -5 -23 -6 0 -8 -5 -4 -11 5 -8 10 -6 16 5
6 10 5 22 -2 34 -9 15 -10 14 -5 -5z"/>
<path d="M10260 2520 c0 -5 7 -7 15 -4 8 4 15 8 15 10 0 2 -7 4 -15 4 -8 0
-15 -4 -15 -10z"/>
<path d="M7561 1834 c0 -11 3 -14 6 -6 3 7 2 16 -1 19 -3 4 -6 -2 -5 -13z"/>
<path d="M7867 1676 c-4 -10 -1 -13 8 -9 8 3 12 9 9 14 -7 12 -11 11 -17 -5z"/>
<path d="M9130 421 c0 -5 5 -13 10 -16 6 -3 10 -2 10 4 0 5 -4 13 -10 16 -5 3
-10 2 -10 -4z"/>
</g>
</svg>
